G75*
%MOIN*%
%OFA0B0*%
%FSLAX25Y25*%
%IPPOS*%
%LPD*%
%AMOC8*
5,1,8,0,0,1.08239X$1,22.5*
%
%ADD10C,0.11824*%
%ADD11C,0.06800*%
%ADD12C,0.09400*%
%ADD13C,0.04762*%
D10*
X0025185Y0144300D03*
X0100185Y0014300D03*
D11*
X0099685Y0036800D02*
X0105685Y0036800D01*
X0105685Y0046800D02*
X0099685Y0046800D01*
X0099685Y0056800D02*
X0105685Y0056800D01*
X0105685Y0066800D02*
X0099685Y0066800D01*
X0099685Y0076800D02*
X0105685Y0076800D01*
X0105685Y0086800D02*
X0099685Y0086800D01*
X0099685Y0096800D02*
X0105685Y0096800D01*
X0105685Y0106800D02*
X0099685Y0106800D01*
X0099685Y0116800D02*
X0105685Y0116800D01*
X0105685Y0126800D02*
X0099685Y0126800D01*
X0099685Y0136800D02*
X0105685Y0136800D01*
X0105685Y0146800D02*
X0099685Y0146800D01*
X0099685Y0156800D02*
X0105685Y0156800D01*
X0105685Y0166800D02*
X0099685Y0166800D01*
X0099685Y0176800D02*
X0105685Y0176800D01*
X0045685Y0176800D02*
X0039685Y0176800D01*
X0039685Y0166800D02*
X0045685Y0166800D01*
X0045685Y0156800D02*
X0039685Y0156800D01*
X0039685Y0146800D02*
X0045685Y0146800D01*
X0045685Y0136800D02*
X0039685Y0136800D01*
X0039685Y0126800D02*
X0045685Y0126800D01*
X0045685Y0116800D02*
X0039685Y0116800D01*
X0039685Y0106800D02*
X0045685Y0106800D01*
X0045685Y0096800D02*
X0039685Y0096800D01*
X0039685Y0086800D02*
X0045685Y0086800D01*
X0045685Y0076800D02*
X0039685Y0076800D01*
X0039685Y0066800D02*
X0045685Y0066800D01*
X0045685Y0056800D02*
X0039685Y0056800D01*
X0039685Y0046800D02*
X0045685Y0046800D01*
X0045685Y0036800D02*
X0039685Y0036800D01*
D12*
X0022685Y0010107D03*
X0022685Y0023887D03*
D13*
X0087685Y0214300D03*
X0105185Y0226800D03*
X0105185Y0234300D03*
X0105185Y0241800D03*
X0067685Y0249300D03*
M02*
