%
M48
M72
T01C0.02362
T02C0.03937
T03C0.04000
T04C0.11024
%
T01
X87685Y214300
X105185Y226800
X105185Y234300
X105185Y241800
X67685Y249300
T02
X22685Y10107
X22685Y23887
T03
X42685Y36800
X42685Y46800
X42685Y56800
X42685Y66800
X42685Y76800
X42685Y86800
X42685Y96800
X42685Y106800
X42685Y116800
X42685Y126800
X42685Y136800
X42685Y146800
X42685Y156800
X42685Y166800
X42685Y176800
X102685Y176800
X102685Y166800
X102685Y156800
X102685Y146800
X102685Y136800
X102685Y126800
X102685Y116800
X102685Y106800
X102685Y96800
X102685Y86800
X102685Y76800
X102685Y66800
X102685Y56800
X102685Y46800
X102685Y36800
T04
X100185Y14300
X25185Y144300
M30
