G75*
%MOIN*%
%OFA0B0*%
%FSLAX25Y25*%
%IPPOS*%
%LPD*%
%AMOC8*
5,1,8,0,0,1.08239X$1,22.5*
%
%ADD10C,0.00600*%
%ADD11R,0.09646X0.03937*%
%ADD12R,0.03937X0.09646*%
%ADD13C,0.06000*%
%ADD14R,0.04331X0.03937*%
%ADD15R,0.03937X0.04331*%
%ADD16R,0.03150X0.03150*%
%ADD17C,0.08600*%
%ADD18C,0.01200*%
%ADD19C,0.02400*%
%ADD20C,0.03200*%
%ADD21C,0.01600*%
%ADD22C,0.03962*%
D10*
X0023480Y0100850D02*
X0023480Y0104053D01*
X0024547Y0105120D01*
X0026682Y0105120D01*
X0027750Y0104053D01*
X0027750Y0100850D01*
X0027750Y0102985D02*
X0029885Y0105120D01*
X0028817Y0107295D02*
X0029885Y0108363D01*
X0029885Y0111566D01*
X0030953Y0111566D02*
X0032020Y0110498D01*
X0032020Y0109431D01*
X0030953Y0111566D02*
X0025615Y0111566D01*
X0026682Y0113741D02*
X0025615Y0114809D01*
X0025615Y0118011D01*
X0027750Y0114809D02*
X0026682Y0113741D01*
X0027750Y0114809D02*
X0027750Y0116944D01*
X0028817Y0118011D01*
X0029885Y0116944D01*
X0029885Y0113741D01*
X0029885Y0120186D02*
X0029885Y0124457D01*
X0028817Y0126632D02*
X0029885Y0127700D01*
X0029885Y0129835D01*
X0028817Y0130902D01*
X0026682Y0130902D01*
X0025615Y0129835D01*
X0025615Y0127700D01*
X0026682Y0126632D01*
X0028817Y0126632D01*
X0028817Y0133077D02*
X0026682Y0133077D01*
X0025615Y0134145D01*
X0025615Y0137348D01*
X0029885Y0134145D02*
X0028817Y0133077D01*
X0029885Y0134145D02*
X0029885Y0137348D01*
X0029885Y0120186D02*
X0023480Y0120186D01*
X0025615Y0107295D02*
X0028817Y0107295D01*
X0029885Y0100850D02*
X0023480Y0100850D01*
X0051931Y0018505D02*
X0055133Y0018505D01*
X0056201Y0017438D01*
X0056201Y0016370D01*
X0055133Y0015303D01*
X0051931Y0015303D01*
X0051931Y0018505D02*
X0051931Y0012100D01*
X0055133Y0012100D01*
X0056201Y0013168D01*
X0056201Y0014235D01*
X0055133Y0015303D01*
X0058376Y0018505D02*
X0060511Y0018505D01*
X0059444Y0018505D02*
X0059444Y0012100D01*
X0060511Y0012100D02*
X0058376Y0012100D01*
X0062673Y0013168D02*
X0063741Y0012100D01*
X0065876Y0012100D01*
X0066943Y0013168D01*
X0066943Y0017438D01*
X0065876Y0018505D01*
X0063741Y0018505D01*
X0062673Y0017438D01*
X0062673Y0013168D01*
X0069119Y0012100D02*
X0069119Y0018505D01*
X0073389Y0012100D01*
X0073389Y0018505D01*
X0075564Y0018505D02*
X0077699Y0018505D01*
X0076632Y0018505D02*
X0076632Y0012100D01*
X0077699Y0012100D02*
X0075564Y0012100D01*
X0079861Y0012100D02*
X0079861Y0018505D01*
X0080929Y0015303D02*
X0084131Y0012100D01*
X0079861Y0014235D02*
X0084131Y0018505D01*
D11*
X0077882Y0220304D03*
X0077882Y0225816D03*
X0077882Y0231328D03*
X0077882Y0236839D03*
X0077882Y0242351D03*
X0077882Y0247863D03*
X0077882Y0253375D03*
X0077882Y0258887D03*
X0027488Y0258887D03*
X0027488Y0253375D03*
X0027488Y0247863D03*
X0027488Y0242351D03*
X0027488Y0236839D03*
X0027488Y0231328D03*
X0027488Y0225816D03*
X0027488Y0220304D03*
D12*
X0033394Y0211269D03*
X0038906Y0211269D03*
X0044417Y0211269D03*
X0049929Y0211269D03*
X0055441Y0211269D03*
X0060953Y0211269D03*
X0066465Y0211269D03*
X0071976Y0211269D03*
D13*
X0045685Y0176800D02*
X0039685Y0176800D01*
X0039685Y0166800D02*
X0045685Y0166800D01*
X0045685Y0156800D02*
X0039685Y0156800D01*
X0039685Y0146800D02*
X0045685Y0146800D01*
X0045685Y0136800D02*
X0039685Y0136800D01*
X0039685Y0126800D02*
X0045685Y0126800D01*
X0045685Y0116800D02*
X0039685Y0116800D01*
X0039685Y0106800D02*
X0045685Y0106800D01*
X0045685Y0096800D02*
X0039685Y0096800D01*
X0039685Y0086800D02*
X0045685Y0086800D01*
X0045685Y0076800D02*
X0039685Y0076800D01*
X0039685Y0066800D02*
X0045685Y0066800D01*
X0045685Y0056800D02*
X0039685Y0056800D01*
X0039685Y0046800D02*
X0045685Y0046800D01*
X0045685Y0036800D02*
X0039685Y0036800D01*
X0099685Y0036800D02*
X0105685Y0036800D01*
X0105685Y0046800D02*
X0099685Y0046800D01*
X0099685Y0056800D02*
X0105685Y0056800D01*
X0105685Y0066800D02*
X0099685Y0066800D01*
X0099685Y0076800D02*
X0105685Y0076800D01*
X0105685Y0086800D02*
X0099685Y0086800D01*
X0099685Y0096800D02*
X0105685Y0096800D01*
X0105685Y0106800D02*
X0099685Y0106800D01*
X0099685Y0116800D02*
X0105685Y0116800D01*
X0105685Y0126800D02*
X0099685Y0126800D01*
X0099685Y0136800D02*
X0105685Y0136800D01*
X0105685Y0146800D02*
X0099685Y0146800D01*
X0099685Y0156800D02*
X0105685Y0156800D01*
X0105685Y0166800D02*
X0099685Y0166800D01*
X0099685Y0176800D02*
X0105685Y0176800D01*
D14*
X0092685Y0250954D03*
X0092685Y0257646D03*
D15*
X0063531Y0199300D03*
X0056839Y0199300D03*
X0046031Y0199300D03*
X0039339Y0199300D03*
D16*
X0044732Y0191800D03*
X0050638Y0191800D03*
X0057232Y0191800D03*
X0063138Y0191800D03*
D17*
X0022685Y0023887D03*
X0022685Y0010107D03*
D18*
X0011985Y0003600D02*
X0011985Y0262461D01*
X0021725Y0262461D01*
X0020865Y0261601D01*
X0020865Y0256173D01*
X0020907Y0256131D01*
X0020865Y0256089D01*
X0020865Y0250661D01*
X0020907Y0250619D01*
X0020865Y0250577D01*
X0020865Y0249800D01*
X0019588Y0249800D01*
X0018486Y0249343D01*
X0017642Y0248499D01*
X0013486Y0244343D01*
X0012642Y0243499D01*
X0012185Y0242397D01*
X0012185Y0096203D01*
X0012642Y0095101D01*
X0032642Y0075101D01*
X0033486Y0074257D01*
X0034588Y0073800D01*
X0035897Y0073800D01*
X0036966Y0072731D01*
X0038730Y0072000D01*
X0046640Y0072000D01*
X0048404Y0072731D01*
X0049754Y0074081D01*
X0050485Y0075845D01*
X0050485Y0077755D01*
X0049754Y0079519D01*
X0048404Y0080869D01*
X0046640Y0081600D01*
X0038730Y0081600D01*
X0036966Y0080869D01*
X0036162Y0080065D01*
X0018185Y0098043D01*
X0018185Y0142093D01*
X0018986Y0140158D01*
X0021043Y0138101D01*
X0023515Y0137078D01*
X0023515Y0133275D01*
X0023891Y0132898D01*
X0024745Y0132045D01*
X0024800Y0131990D01*
X0024745Y0131935D01*
X0023515Y0130705D01*
X0023515Y0126830D01*
X0024292Y0126053D01*
X0024745Y0125600D01*
X0025035Y0125309D01*
X0025812Y0124532D01*
X0027785Y0124532D01*
X0027785Y0122286D01*
X0022610Y0122286D01*
X0021380Y0121056D01*
X0021380Y0119317D01*
X0022610Y0118086D01*
X0023515Y0118086D01*
X0023515Y0113939D01*
X0024266Y0113187D01*
X0023515Y0112436D01*
X0023515Y0110696D01*
X0024745Y0109466D01*
X0027785Y0109466D01*
X0027785Y0109395D01*
X0024745Y0109395D01*
X0023515Y0108165D01*
X0023515Y0107058D01*
X0022923Y0106466D01*
X0022447Y0105990D01*
X0022134Y0105677D01*
X0021380Y0104923D01*
X0021380Y0099980D01*
X0022610Y0098750D01*
X0030755Y0098750D01*
X0031985Y0099980D01*
X0031985Y0101720D01*
X0030755Y0102950D01*
X0030685Y0102950D01*
X0031985Y0104250D01*
X0031985Y0105990D01*
X0031233Y0106742D01*
X0031822Y0107331D01*
X0032890Y0107331D01*
X0034120Y0108561D01*
X0034120Y0111368D01*
X0032890Y0112598D01*
X0031985Y0113503D01*
X0031985Y0117814D01*
X0031233Y0118565D01*
X0031985Y0119317D01*
X0031985Y0125327D01*
X0031233Y0126078D01*
X0031985Y0126830D01*
X0031985Y0130705D01*
X0031230Y0131459D01*
X0030917Y0131772D01*
X0030700Y0131990D01*
X0030755Y0132045D01*
X0031985Y0133275D01*
X0031985Y0138218D01*
X0030755Y0139448D01*
X0030673Y0139448D01*
X0031384Y0140158D01*
X0032497Y0142846D01*
X0032497Y0145754D01*
X0031384Y0148442D01*
X0029327Y0150499D01*
X0026639Y0151612D01*
X0023731Y0151612D01*
X0021043Y0150499D01*
X0018986Y0148442D01*
X0018185Y0146507D01*
X0018185Y0177057D01*
X0030142Y0165101D01*
X0030986Y0164257D01*
X0032088Y0163800D01*
X0035897Y0163800D01*
X0036966Y0162731D01*
X0038730Y0162000D01*
X0046640Y0162000D01*
X0048404Y0162731D01*
X0049754Y0164081D01*
X0050485Y0165845D01*
X0050485Y0167755D01*
X0049754Y0169519D01*
X0048404Y0170869D01*
X0046640Y0171600D01*
X0038730Y0171600D01*
X0036966Y0170869D01*
X0035897Y0169800D01*
X0033928Y0169800D01*
X0023185Y0180543D01*
X0023185Y0216735D01*
X0027104Y0216735D01*
X0027104Y0219920D01*
X0027872Y0219920D01*
X0027872Y0216735D01*
X0029625Y0216735D01*
X0029625Y0205700D01*
X0030680Y0204646D01*
X0036108Y0204646D01*
X0036150Y0204687D01*
X0036191Y0204646D01*
X0041620Y0204646D01*
X0041661Y0204687D01*
X0041703Y0204646D01*
X0046288Y0204646D01*
X0044908Y0203265D01*
X0043317Y0203265D01*
X0042685Y0202633D01*
X0042053Y0203265D01*
X0036624Y0203265D01*
X0035570Y0202211D01*
X0035570Y0196389D01*
X0036624Y0195335D01*
X0038577Y0195335D01*
X0041357Y0191383D01*
X0041357Y0189480D01*
X0042412Y0188425D01*
X0047053Y0188425D01*
X0047826Y0189199D01*
X0048081Y0188945D01*
X0048445Y0188734D01*
X0048852Y0188625D01*
X0050450Y0188625D01*
X0050450Y0191613D01*
X0050825Y0191613D01*
X0050825Y0191987D01*
X0053813Y0191987D01*
X0053813Y0193585D01*
X0053704Y0193992D01*
X0053493Y0194357D01*
X0053195Y0194655D01*
X0052830Y0194866D01*
X0052423Y0194975D01*
X0050825Y0194975D01*
X0050825Y0191987D01*
X0050450Y0191987D01*
X0050450Y0194975D01*
X0048852Y0194975D01*
X0048445Y0194866D01*
X0048081Y0194655D01*
X0047826Y0194401D01*
X0047053Y0195175D01*
X0046026Y0195175D01*
X0045913Y0195335D01*
X0048746Y0195335D01*
X0049800Y0196389D01*
X0049800Y0199672D01*
X0051884Y0201757D01*
X0052441Y0202313D01*
X0052441Y0200101D01*
X0052898Y0198998D01*
X0053070Y0198826D01*
X0053070Y0196389D01*
X0054124Y0195335D01*
X0059553Y0195335D01*
X0060138Y0195920D01*
X0060138Y0194495D01*
X0060044Y0194401D01*
X0059790Y0194655D01*
X0059425Y0194866D01*
X0059018Y0194975D01*
X0057420Y0194975D01*
X0057420Y0191987D01*
X0057045Y0191987D01*
X0057045Y0191613D01*
X0054057Y0191613D01*
X0054057Y0190015D01*
X0054167Y0189608D01*
X0054377Y0189243D01*
X0054675Y0188945D01*
X0055040Y0188734D01*
X0055447Y0188625D01*
X0057045Y0188625D01*
X0057045Y0191613D01*
X0057420Y0191613D01*
X0057420Y0188625D01*
X0059018Y0188625D01*
X0059425Y0188734D01*
X0059790Y0188945D01*
X0060044Y0189199D01*
X0060817Y0188425D01*
X0065458Y0188425D01*
X0066513Y0189480D01*
X0066513Y0194120D01*
X0066138Y0194495D01*
X0066138Y0195335D01*
X0066246Y0195335D01*
X0067300Y0196389D01*
X0067300Y0202211D01*
X0066246Y0203265D01*
X0060817Y0203265D01*
X0060185Y0202633D01*
X0059553Y0203265D01*
X0058441Y0203265D01*
X0058441Y0204646D01*
X0063667Y0204646D01*
X0063709Y0204687D01*
X0063750Y0204646D01*
X0069179Y0204646D01*
X0069467Y0204934D01*
X0069797Y0204846D01*
X0071592Y0204846D01*
X0071592Y0210884D01*
X0072361Y0210884D01*
X0072361Y0211653D01*
X0075545Y0211653D01*
X0075545Y0216302D01*
X0075482Y0216535D01*
X0077408Y0216535D01*
X0082186Y0211757D01*
X0083289Y0211300D01*
X0085338Y0211300D01*
X0085543Y0211095D01*
X0086933Y0210519D01*
X0088437Y0210519D01*
X0089827Y0211095D01*
X0090890Y0212158D01*
X0091466Y0213548D01*
X0091466Y0215052D01*
X0090890Y0216442D01*
X0089827Y0217505D01*
X0088437Y0218081D01*
X0086933Y0218081D01*
X0085543Y0217505D01*
X0085338Y0217300D01*
X0085128Y0217300D01*
X0084505Y0217924D01*
X0084505Y0223018D01*
X0084463Y0223060D01*
X0084505Y0223102D01*
X0084505Y0223800D01*
X0102838Y0223800D01*
X0103043Y0223595D01*
X0104433Y0223019D01*
X0105937Y0223019D01*
X0107327Y0223595D01*
X0108390Y0224658D01*
X0108966Y0226048D01*
X0108966Y0227552D01*
X0108390Y0228942D01*
X0107327Y0230005D01*
X0106012Y0230550D01*
X0107327Y0231095D01*
X0108390Y0232158D01*
X0108966Y0233548D01*
X0108966Y0235052D01*
X0108390Y0236442D01*
X0107327Y0237505D01*
X0106012Y0238050D01*
X0107327Y0238595D01*
X0108390Y0239658D01*
X0108966Y0241048D01*
X0108966Y0242552D01*
X0108390Y0243942D01*
X0107327Y0245005D01*
X0105937Y0245581D01*
X0104433Y0245581D01*
X0103043Y0245005D01*
X0102838Y0244800D01*
X0092088Y0244800D01*
X0090986Y0244343D01*
X0086442Y0239800D01*
X0084258Y0239800D01*
X0084216Y0239842D01*
X0084305Y0240172D01*
X0084305Y0241967D01*
X0078266Y0241967D01*
X0078266Y0242735D01*
X0084305Y0242735D01*
X0084305Y0244530D01*
X0084216Y0244860D01*
X0084219Y0244863D01*
X0090191Y0244863D01*
X0091294Y0245320D01*
X0093159Y0247185D01*
X0095596Y0247185D01*
X0096650Y0248239D01*
X0096650Y0253668D01*
X0095877Y0254441D01*
X0096131Y0254696D01*
X0096341Y0255060D01*
X0096450Y0255467D01*
X0096450Y0257262D01*
X0093069Y0257262D01*
X0093069Y0258031D01*
X0092301Y0258031D01*
X0092301Y0261215D01*
X0090309Y0261215D01*
X0089902Y0261106D01*
X0089537Y0260895D01*
X0089239Y0260597D01*
X0089029Y0260233D01*
X0088920Y0259826D01*
X0088920Y0258031D01*
X0092301Y0258031D01*
X0092301Y0257262D01*
X0088920Y0257262D01*
X0088920Y0255467D01*
X0089029Y0255060D01*
X0089239Y0254696D01*
X0089493Y0254441D01*
X0088720Y0253668D01*
X0088720Y0251231D01*
X0088352Y0250863D01*
X0084219Y0250863D01*
X0084216Y0250866D01*
X0084305Y0251196D01*
X0084305Y0252991D01*
X0078266Y0252991D01*
X0078266Y0253759D01*
X0077498Y0253759D01*
X0077498Y0258502D01*
X0078266Y0258502D01*
X0078266Y0256943D01*
X0078266Y0253759D01*
X0084305Y0253759D01*
X0084305Y0255554D01*
X0084196Y0255961D01*
X0084098Y0256131D01*
X0084196Y0256301D01*
X0084305Y0256707D01*
X0084305Y0258502D01*
X0078266Y0258502D01*
X0078266Y0259271D01*
X0077498Y0259271D01*
X0077498Y0262455D01*
X0072848Y0262455D01*
X0072441Y0262346D01*
X0072077Y0262135D01*
X0071779Y0261838D01*
X0071568Y0261473D01*
X0071459Y0261066D01*
X0071459Y0259271D01*
X0077498Y0259271D01*
X0077498Y0258502D01*
X0071459Y0258502D01*
X0071459Y0256707D01*
X0071568Y0256301D01*
X0071666Y0256131D01*
X0071568Y0255961D01*
X0071459Y0255554D01*
X0071459Y0253759D01*
X0077498Y0253759D01*
X0077498Y0252991D01*
X0071459Y0252991D01*
X0071459Y0252019D01*
X0070782Y0252300D01*
X0070032Y0252300D01*
X0069827Y0252505D01*
X0068437Y0253081D01*
X0066933Y0253081D01*
X0065543Y0252505D01*
X0064480Y0251442D01*
X0063904Y0250052D01*
X0063904Y0248548D01*
X0064480Y0247158D01*
X0065543Y0246095D01*
X0066933Y0245519D01*
X0068437Y0245519D01*
X0069347Y0245896D01*
X0070142Y0245101D01*
X0070142Y0245101D01*
X0070986Y0244257D01*
X0071459Y0244061D01*
X0071459Y0242735D01*
X0077498Y0242735D01*
X0077498Y0241967D01*
X0071459Y0241967D01*
X0071459Y0240172D01*
X0071548Y0239842D01*
X0071259Y0239553D01*
X0071259Y0234125D01*
X0071301Y0234083D01*
X0071259Y0234042D01*
X0071259Y0228613D01*
X0071301Y0228572D01*
X0071259Y0228530D01*
X0071259Y0223102D01*
X0071301Y0223060D01*
X0071259Y0223018D01*
X0071259Y0217691D01*
X0069797Y0217691D01*
X0069467Y0217603D01*
X0069179Y0217891D01*
X0063750Y0217891D01*
X0063709Y0217850D01*
X0063667Y0217891D01*
X0058239Y0217891D01*
X0058197Y0217850D01*
X0058155Y0217891D01*
X0052727Y0217891D01*
X0052685Y0217850D01*
X0052643Y0217891D01*
X0047215Y0217891D01*
X0047173Y0217850D01*
X0047131Y0217891D01*
X0041703Y0217891D01*
X0041661Y0217850D01*
X0041620Y0217891D01*
X0036191Y0217891D01*
X0036150Y0217850D01*
X0036108Y0217891D01*
X0033848Y0217891D01*
X0033911Y0218125D01*
X0033911Y0219920D01*
X0027873Y0219920D01*
X0027873Y0220688D01*
X0033911Y0220688D01*
X0033911Y0222483D01*
X0033823Y0222813D01*
X0034111Y0223102D01*
X0034111Y0228530D01*
X0034069Y0228572D01*
X0034111Y0228613D01*
X0034111Y0234042D01*
X0034069Y0234083D01*
X0034111Y0234125D01*
X0034111Y0239553D01*
X0034069Y0239595D01*
X0034111Y0239637D01*
X0034111Y0245065D01*
X0034069Y0245107D01*
X0034111Y0245149D01*
X0034111Y0250577D01*
X0034069Y0250619D01*
X0034111Y0250661D01*
X0034111Y0256089D01*
X0034069Y0256131D01*
X0034111Y0256173D01*
X0034111Y0261601D01*
X0033251Y0262461D01*
X0111086Y0262461D01*
X0111086Y0003600D01*
X0011985Y0003600D01*
X0011985Y0004160D02*
X0111086Y0004160D01*
X0111086Y0005358D02*
X0026187Y0005358D01*
X0026529Y0005607D02*
X0027185Y0006263D01*
X0027731Y0007015D01*
X0028153Y0007842D01*
X0028440Y0008725D01*
X0028585Y0009643D01*
X0028585Y0009723D01*
X0023069Y0009723D01*
X0023069Y0004207D01*
X0023149Y0004207D01*
X0024067Y0004352D01*
X0024950Y0004639D01*
X0025777Y0005061D01*
X0026529Y0005607D01*
X0027398Y0006557D02*
X0111086Y0006557D01*
X0111086Y0007755D02*
X0103492Y0007755D01*
X0104327Y0008101D02*
X0101639Y0006988D01*
X0098731Y0006988D01*
X0096043Y0008101D01*
X0093986Y0010158D01*
X0092873Y0012846D01*
X0092873Y0015754D01*
X0093986Y0018442D01*
X0096043Y0020499D01*
X0098731Y0021612D01*
X0101639Y0021612D01*
X0104327Y0020499D01*
X0106384Y0018442D01*
X0107497Y0015754D01*
X0107497Y0012846D01*
X0106384Y0010158D01*
X0104327Y0008101D01*
X0105179Y0008954D02*
X0111086Y0008954D01*
X0111086Y0010152D02*
X0106378Y0010152D01*
X0106878Y0011351D02*
X0111086Y0011351D01*
X0111086Y0012549D02*
X0107374Y0012549D01*
X0107497Y0013748D02*
X0111086Y0013748D01*
X0111086Y0014946D02*
X0107497Y0014946D01*
X0107335Y0016145D02*
X0111086Y0016145D01*
X0111086Y0017343D02*
X0106839Y0017343D01*
X0106284Y0018542D02*
X0111086Y0018542D01*
X0111086Y0019740D02*
X0105085Y0019740D01*
X0103264Y0020939D02*
X0111086Y0020939D01*
X0111086Y0022137D02*
X0028563Y0022137D01*
X0028785Y0022673D02*
X0027856Y0020431D01*
X0026140Y0018715D01*
X0023898Y0017787D01*
X0021472Y0017787D01*
X0019230Y0018715D01*
X0017514Y0020431D01*
X0016585Y0022673D01*
X0016585Y0025100D01*
X0017514Y0027342D01*
X0019230Y0029058D01*
X0019285Y0029081D01*
X0019285Y0054976D01*
X0019803Y0056226D01*
X0032303Y0068726D01*
X0033259Y0069682D01*
X0034509Y0070200D01*
X0036297Y0070200D01*
X0036966Y0070869D01*
X0038730Y0071600D01*
X0046640Y0071600D01*
X0048404Y0070869D01*
X0049754Y0069519D01*
X0050485Y0067755D01*
X0050485Y0065845D01*
X0049754Y0064081D01*
X0048404Y0062731D01*
X0046640Y0062000D01*
X0038730Y0062000D01*
X0036966Y0062731D01*
X0036445Y0063252D01*
X0026085Y0052892D01*
X0026085Y0029081D01*
X0026140Y0029058D01*
X0027856Y0027342D01*
X0028785Y0025100D01*
X0028785Y0022673D01*
X0028785Y0023336D02*
X0111086Y0023336D01*
X0111086Y0024534D02*
X0028785Y0024534D01*
X0028523Y0025733D02*
X0111086Y0025733D01*
X0111086Y0026932D02*
X0028026Y0026932D01*
X0027068Y0028130D02*
X0111086Y0028130D01*
X0111086Y0029329D02*
X0026085Y0029329D01*
X0026085Y0030527D02*
X0111086Y0030527D01*
X0111086Y0031726D02*
X0026085Y0031726D01*
X0026085Y0032924D02*
X0036773Y0032924D01*
X0036966Y0032731D02*
X0038730Y0032000D01*
X0046640Y0032000D01*
X0048404Y0032731D01*
X0049754Y0034081D01*
X0050485Y0035845D01*
X0050485Y0037755D01*
X0049754Y0039519D01*
X0048404Y0040869D01*
X0046640Y0041600D01*
X0038730Y0041600D01*
X0036966Y0040869D01*
X0035616Y0039519D01*
X0034885Y0037755D01*
X0034885Y0035845D01*
X0035616Y0034081D01*
X0036966Y0032731D01*
X0035599Y0034123D02*
X0026085Y0034123D01*
X0026085Y0035321D02*
X0035102Y0035321D01*
X0034885Y0036520D02*
X0026085Y0036520D01*
X0026085Y0037718D02*
X0034885Y0037718D01*
X0035366Y0038917D02*
X0026085Y0038917D01*
X0026085Y0040115D02*
X0036212Y0040115D01*
X0037274Y0042866D02*
X0037919Y0042537D01*
X0038608Y0042313D01*
X0039323Y0042200D01*
X0042285Y0042200D01*
X0042285Y0046400D01*
X0035091Y0046400D01*
X0035198Y0045723D01*
X0035422Y0045034D01*
X0035751Y0044389D01*
X0036176Y0043803D01*
X0036688Y0043291D01*
X0037274Y0042866D01*
X0037996Y0042512D02*
X0026085Y0042512D01*
X0026085Y0041314D02*
X0038039Y0041314D01*
X0036269Y0043711D02*
X0026085Y0043711D01*
X0026085Y0044909D02*
X0035486Y0044909D01*
X0035137Y0046108D02*
X0026085Y0046108D01*
X0026085Y0047306D02*
X0035108Y0047306D01*
X0035091Y0047200D02*
X0042285Y0047200D01*
X0042285Y0046400D01*
X0043085Y0046400D01*
X0043085Y0042200D01*
X0046047Y0042200D01*
X0046762Y0042313D01*
X0047451Y0042537D01*
X0048096Y0042866D01*
X0048682Y0043291D01*
X0049194Y0043803D01*
X0049619Y0044389D01*
X0049948Y0045034D01*
X0050172Y0045723D01*
X0050279Y0046400D01*
X0043085Y0046400D01*
X0043085Y0047200D01*
X0042285Y0047200D01*
X0042285Y0051400D01*
X0039323Y0051400D01*
X0038608Y0051287D01*
X0037919Y0051063D01*
X0037274Y0050734D01*
X0036688Y0050309D01*
X0036176Y0049797D01*
X0035751Y0049211D01*
X0035422Y0048566D01*
X0035198Y0047877D01*
X0035091Y0047200D01*
X0035402Y0048505D02*
X0026085Y0048505D01*
X0026085Y0049703D02*
X0036108Y0049703D01*
X0037603Y0050902D02*
X0026085Y0050902D01*
X0026085Y0052100D02*
X0038488Y0052100D01*
X0038730Y0052000D02*
X0046640Y0052000D01*
X0048404Y0052731D01*
X0049754Y0054081D01*
X0050485Y0055845D01*
X0050485Y0057755D01*
X0049754Y0059519D01*
X0048404Y0060869D01*
X0046640Y0061600D01*
X0038730Y0061600D01*
X0036966Y0060869D01*
X0035616Y0059519D01*
X0034885Y0057755D01*
X0034885Y0055845D01*
X0035616Y0054081D01*
X0036966Y0052731D01*
X0038730Y0052000D01*
X0036398Y0053299D02*
X0026492Y0053299D01*
X0027691Y0054497D02*
X0035443Y0054497D01*
X0034947Y0055696D02*
X0028889Y0055696D01*
X0030088Y0056894D02*
X0034885Y0056894D01*
X0035025Y0058093D02*
X0031286Y0058093D01*
X0032485Y0059291D02*
X0035522Y0059291D01*
X0036587Y0060490D02*
X0033683Y0060490D01*
X0034882Y0061688D02*
X0111086Y0061688D01*
X0111086Y0060490D02*
X0108783Y0060490D01*
X0108404Y0060869D02*
X0109754Y0059519D01*
X0110485Y0057755D01*
X0110485Y0055845D01*
X0109754Y0054081D01*
X0108404Y0052731D01*
X0106640Y0052000D01*
X0098730Y0052000D01*
X0096966Y0052731D01*
X0095616Y0054081D01*
X0094885Y0055845D01*
X0094885Y0057755D01*
X0095616Y0059519D01*
X0096966Y0060869D01*
X0098730Y0061600D01*
X0106640Y0061600D01*
X0108404Y0060869D01*
X0108404Y0062731D02*
X0109754Y0064081D01*
X0110485Y0065845D01*
X0110485Y0067755D01*
X0109754Y0069519D01*
X0108404Y0070869D01*
X0106640Y0071600D01*
X0098730Y0071600D01*
X0096966Y0070869D01*
X0095616Y0069519D01*
X0094885Y0067755D01*
X0094885Y0065845D01*
X0095616Y0064081D01*
X0096966Y0062731D01*
X0098730Y0062000D01*
X0106640Y0062000D01*
X0108404Y0062731D01*
X0108560Y0062887D02*
X0111086Y0062887D01*
X0111086Y0064085D02*
X0109756Y0064085D01*
X0110253Y0065284D02*
X0111086Y0065284D01*
X0111086Y0066482D02*
X0110485Y0066482D01*
X0110485Y0067681D02*
X0111086Y0067681D01*
X0111086Y0068879D02*
X0110019Y0068879D01*
X0109195Y0070078D02*
X0111086Y0070078D01*
X0111086Y0071276D02*
X0107421Y0071276D01*
X0106640Y0072000D02*
X0108404Y0072731D01*
X0109754Y0074081D01*
X0110485Y0075845D01*
X0110485Y0077755D01*
X0109754Y0079519D01*
X0108404Y0080869D01*
X0106640Y0081600D01*
X0098730Y0081600D01*
X0096966Y0080869D01*
X0095616Y0079519D01*
X0094885Y0077755D01*
X0094885Y0075845D01*
X0095616Y0074081D01*
X0096966Y0072731D01*
X0098730Y0072000D01*
X0106640Y0072000D01*
X0107786Y0072475D02*
X0111086Y0072475D01*
X0111086Y0073673D02*
X0109347Y0073673D01*
X0110082Y0074872D02*
X0111086Y0074872D01*
X0111086Y0076070D02*
X0110485Y0076070D01*
X0110485Y0077269D02*
X0111086Y0077269D01*
X0111086Y0078468D02*
X0110190Y0078468D01*
X0109607Y0079666D02*
X0111086Y0079666D01*
X0111086Y0080865D02*
X0108409Y0080865D01*
X0108404Y0082731D02*
X0109754Y0084081D01*
X0110485Y0085845D01*
X0110485Y0087755D01*
X0109754Y0089519D01*
X0108404Y0090869D01*
X0106640Y0091600D01*
X0098730Y0091600D01*
X0096966Y0090869D01*
X0095616Y0089519D01*
X0094885Y0087755D01*
X0094885Y0085845D01*
X0095616Y0084081D01*
X0096966Y0082731D01*
X0098730Y0082000D01*
X0106640Y0082000D01*
X0108404Y0082731D01*
X0108935Y0083262D02*
X0111086Y0083262D01*
X0111086Y0084460D02*
X0109911Y0084460D01*
X0110408Y0085659D02*
X0111086Y0085659D01*
X0111086Y0086857D02*
X0110485Y0086857D01*
X0110360Y0088056D02*
X0111086Y0088056D01*
X0111086Y0089254D02*
X0109864Y0089254D01*
X0108821Y0090453D02*
X0111086Y0090453D01*
X0111086Y0091651D02*
X0024577Y0091651D01*
X0025775Y0090453D02*
X0036549Y0090453D01*
X0036966Y0090869D02*
X0035616Y0089519D01*
X0034885Y0087755D01*
X0034885Y0085845D01*
X0035616Y0084081D01*
X0036966Y0082731D01*
X0038730Y0082000D01*
X0046640Y0082000D01*
X0048404Y0082731D01*
X0049754Y0084081D01*
X0050485Y0085845D01*
X0050485Y0087755D01*
X0049754Y0089519D01*
X0048404Y0090869D01*
X0046640Y0091600D01*
X0038730Y0091600D01*
X0036966Y0090869D01*
X0036966Y0092731D02*
X0035616Y0094081D01*
X0034885Y0095845D01*
X0034885Y0097755D01*
X0035616Y0099519D01*
X0036966Y0100869D01*
X0038730Y0101600D01*
X0046640Y0101600D01*
X0048404Y0100869D01*
X0049754Y0099519D01*
X0050485Y0097755D01*
X0050485Y0095845D01*
X0049754Y0094081D01*
X0048404Y0092731D01*
X0046640Y0092000D01*
X0038730Y0092000D01*
X0036966Y0092731D01*
X0036847Y0092850D02*
X0023378Y0092850D01*
X0022180Y0094048D02*
X0035649Y0094048D01*
X0035133Y0095247D02*
X0020981Y0095247D01*
X0019782Y0096445D02*
X0034885Y0096445D01*
X0034885Y0097644D02*
X0018584Y0097644D01*
X0018185Y0098842D02*
X0022518Y0098842D01*
X0021380Y0100041D02*
X0018185Y0100041D01*
X0018185Y0101239D02*
X0021380Y0101239D01*
X0021380Y0102438D02*
X0018185Y0102438D01*
X0018185Y0103636D02*
X0021380Y0103636D01*
X0021380Y0104835D02*
X0018185Y0104835D01*
X0018185Y0106033D02*
X0022490Y0106033D01*
X0022447Y0105990D02*
X0022447Y0105990D01*
X0023515Y0107232D02*
X0018185Y0107232D01*
X0018185Y0108430D02*
X0023780Y0108430D01*
X0024582Y0109629D02*
X0018185Y0109629D01*
X0018185Y0110827D02*
X0023515Y0110827D01*
X0023515Y0112026D02*
X0018185Y0112026D01*
X0018185Y0113224D02*
X0024229Y0113224D01*
X0023515Y0114423D02*
X0018185Y0114423D01*
X0018185Y0115621D02*
X0023515Y0115621D01*
X0023515Y0116820D02*
X0018185Y0116820D01*
X0018185Y0118018D02*
X0023515Y0118018D01*
X0021479Y0119217D02*
X0018185Y0119217D01*
X0018185Y0120415D02*
X0021380Y0120415D01*
X0021937Y0121614D02*
X0018185Y0121614D01*
X0018185Y0122812D02*
X0027785Y0122812D01*
X0027785Y0124011D02*
X0018185Y0124011D01*
X0018185Y0125209D02*
X0025135Y0125209D01*
X0024745Y0125600D02*
X0024745Y0125600D01*
X0023936Y0126408D02*
X0018185Y0126408D01*
X0018185Y0127606D02*
X0023515Y0127606D01*
X0023515Y0128805D02*
X0018185Y0128805D01*
X0018185Y0130003D02*
X0023515Y0130003D01*
X0024012Y0131202D02*
X0018185Y0131202D01*
X0018185Y0132401D02*
X0024389Y0132401D01*
X0024745Y0132045D02*
X0024745Y0132045D01*
X0023515Y0133599D02*
X0018185Y0133599D01*
X0018185Y0134798D02*
X0023515Y0134798D01*
X0023515Y0135996D02*
X0018185Y0135996D01*
X0018185Y0137195D02*
X0023232Y0137195D01*
X0020751Y0138393D02*
X0018185Y0138393D01*
X0018185Y0139592D02*
X0019553Y0139592D01*
X0018725Y0140790D02*
X0018185Y0140790D01*
X0018185Y0141989D02*
X0018228Y0141989D01*
X0018185Y0146783D02*
X0018299Y0146783D01*
X0018185Y0147981D02*
X0018796Y0147981D01*
X0018185Y0149180D02*
X0019724Y0149180D01*
X0020923Y0150378D02*
X0018185Y0150378D01*
X0018185Y0151577D02*
X0023646Y0151577D01*
X0026724Y0151577D02*
X0038674Y0151577D01*
X0038730Y0151600D02*
X0036966Y0150869D01*
X0035616Y0149519D01*
X0034885Y0147755D01*
X0034885Y0145845D01*
X0035616Y0144081D01*
X0036966Y0142731D01*
X0038730Y0142000D01*
X0046640Y0142000D01*
X0048404Y0142731D01*
X0049754Y0144081D01*
X0050485Y0145845D01*
X0050485Y0147755D01*
X0049754Y0149519D01*
X0048404Y0150869D01*
X0046640Y0151600D01*
X0038730Y0151600D01*
X0038730Y0152000D02*
X0036966Y0152731D01*
X0035616Y0154081D01*
X0034885Y0155845D01*
X0034885Y0157755D01*
X0035616Y0159519D01*
X0036966Y0160869D01*
X0038730Y0161600D01*
X0046640Y0161600D01*
X0048404Y0160869D01*
X0049754Y0159519D01*
X0050485Y0157755D01*
X0050485Y0155845D01*
X0049754Y0154081D01*
X0048404Y0152731D01*
X0046640Y0152000D01*
X0038730Y0152000D01*
X0036922Y0152775D02*
X0018185Y0152775D01*
X0018185Y0153974D02*
X0035723Y0153974D01*
X0035164Y0155172D02*
X0018185Y0155172D01*
X0018185Y0156371D02*
X0034885Y0156371D01*
X0034885Y0157569D02*
X0018185Y0157569D01*
X0018185Y0158768D02*
X0035305Y0158768D01*
X0036063Y0159966D02*
X0018185Y0159966D01*
X0018185Y0161165D02*
X0037680Y0161165D01*
X0037853Y0162363D02*
X0018185Y0162363D01*
X0018185Y0163562D02*
X0036135Y0163562D01*
X0036850Y0170753D02*
X0032975Y0170753D01*
X0031776Y0171951D02*
X0111086Y0171951D01*
X0111086Y0170753D02*
X0108520Y0170753D01*
X0108404Y0170869D02*
X0106640Y0171600D01*
X0098730Y0171600D01*
X0096966Y0170869D01*
X0095616Y0169519D01*
X0094885Y0167755D01*
X0094885Y0165845D01*
X0095616Y0164081D01*
X0096966Y0162731D01*
X0098730Y0162000D01*
X0106640Y0162000D01*
X0108404Y0162731D01*
X0109754Y0164081D01*
X0110485Y0165845D01*
X0110485Y0167755D01*
X0109754Y0169519D01*
X0108404Y0170869D01*
X0109719Y0169554D02*
X0111086Y0169554D01*
X0111086Y0168356D02*
X0110236Y0168356D01*
X0110485Y0167157D02*
X0111086Y0167157D01*
X0111086Y0165959D02*
X0110485Y0165959D01*
X0110036Y0164760D02*
X0111086Y0164760D01*
X0111086Y0163562D02*
X0109235Y0163562D01*
X0107517Y0162363D02*
X0111086Y0162363D01*
X0111086Y0161165D02*
X0107690Y0161165D01*
X0108404Y0160869D02*
X0106640Y0161600D01*
X0098730Y0161600D01*
X0096966Y0160869D01*
X0095616Y0159519D01*
X0094885Y0157755D01*
X0094885Y0155845D01*
X0095616Y0154081D01*
X0096966Y0152731D01*
X0098730Y0152000D01*
X0106640Y0152000D01*
X0108404Y0152731D01*
X0109754Y0154081D01*
X0110485Y0155845D01*
X0110485Y0157755D01*
X0109754Y0159519D01*
X0108404Y0160869D01*
X0109307Y0159966D02*
X0111086Y0159966D01*
X0111086Y0158768D02*
X0110065Y0158768D01*
X0110485Y0157569D02*
X0111086Y0157569D01*
X0111086Y0156371D02*
X0110485Y0156371D01*
X0110206Y0155172D02*
X0111086Y0155172D01*
X0111086Y0153974D02*
X0109647Y0153974D01*
X0108448Y0152775D02*
X0111086Y0152775D01*
X0111086Y0151577D02*
X0106696Y0151577D01*
X0106640Y0151600D02*
X0098730Y0151600D01*
X0096966Y0150869D01*
X0095616Y0149519D01*
X0094885Y0147755D01*
X0094885Y0145845D01*
X0095616Y0144081D01*
X0096966Y0142731D01*
X0098730Y0142000D01*
X0106640Y0142000D01*
X0108404Y0142731D01*
X0109754Y0144081D01*
X0110485Y0145845D01*
X0110485Y0147755D01*
X0109754Y0149519D01*
X0108404Y0150869D01*
X0106640Y0151600D01*
X0108895Y0150378D02*
X0111086Y0150378D01*
X0111086Y0149180D02*
X0109895Y0149180D01*
X0110391Y0147981D02*
X0111086Y0147981D01*
X0111086Y0146783D02*
X0110485Y0146783D01*
X0110377Y0145584D02*
X0111086Y0145584D01*
X0111086Y0144386D02*
X0109880Y0144386D01*
X0108860Y0143187D02*
X0111086Y0143187D01*
X0111086Y0141989D02*
X0032142Y0141989D01*
X0032497Y0143187D02*
X0036510Y0143187D01*
X0035490Y0144386D02*
X0032497Y0144386D01*
X0032497Y0145584D02*
X0034993Y0145584D01*
X0034885Y0146783D02*
X0032071Y0146783D01*
X0031574Y0147981D02*
X0034979Y0147981D01*
X0035475Y0149180D02*
X0030646Y0149180D01*
X0029447Y0150378D02*
X0036475Y0150378D01*
X0038730Y0141600D02*
X0036966Y0140869D01*
X0035616Y0139519D01*
X0034885Y0137755D01*
X0034885Y0135845D01*
X0035616Y0134081D01*
X0036966Y0132731D01*
X0038730Y0132000D01*
X0046640Y0132000D01*
X0048404Y0132731D01*
X0049754Y0134081D01*
X0050485Y0135845D01*
X0050485Y0137755D01*
X0049754Y0139519D01*
X0048404Y0140869D01*
X0046640Y0141600D01*
X0038730Y0141600D01*
X0036887Y0140790D02*
X0031645Y0140790D01*
X0030817Y0139592D02*
X0035688Y0139592D01*
X0035149Y0138393D02*
X0031810Y0138393D01*
X0031985Y0137195D02*
X0034885Y0137195D01*
X0034885Y0135996D02*
X0031985Y0135996D01*
X0031985Y0134798D02*
X0035319Y0134798D01*
X0036098Y0133599D02*
X0031985Y0133599D01*
X0031110Y0132401D02*
X0037763Y0132401D01*
X0037769Y0131202D02*
X0031488Y0131202D01*
X0030917Y0131772D02*
X0030917Y0131772D01*
X0031985Y0130003D02*
X0036100Y0130003D01*
X0035616Y0129519D02*
X0034885Y0127755D01*
X0034885Y0125845D01*
X0035616Y0124081D01*
X0036966Y0122731D01*
X0038730Y0122000D01*
X0046640Y0122000D01*
X0048404Y0122731D01*
X0049754Y0124081D01*
X0050485Y0125845D01*
X0050485Y0127755D01*
X0049754Y0129519D01*
X0048404Y0130869D01*
X0046640Y0131600D01*
X0038730Y0131600D01*
X0036966Y0130869D01*
X0035616Y0129519D01*
X0035320Y0128805D02*
X0031985Y0128805D01*
X0031985Y0127606D02*
X0034885Y0127606D01*
X0034885Y0126408D02*
X0031563Y0126408D01*
X0031985Y0125209D02*
X0035148Y0125209D01*
X0035686Y0124011D02*
X0031985Y0124011D01*
X0031985Y0122812D02*
X0036884Y0122812D01*
X0036966Y0120869D02*
X0035616Y0119519D01*
X0034885Y0117755D01*
X0034885Y0115845D01*
X0035616Y0114081D01*
X0036966Y0112731D01*
X0038730Y0112000D01*
X0046640Y0112000D01*
X0048404Y0112731D01*
X0049754Y0114081D01*
X0050485Y0115845D01*
X0050485Y0117755D01*
X0049754Y0119519D01*
X0048404Y0120869D01*
X0046640Y0121600D01*
X0038730Y0121600D01*
X0036966Y0120869D01*
X0036512Y0120415D02*
X0031985Y0120415D01*
X0031985Y0121614D02*
X0111086Y0121614D01*
X0111086Y0122812D02*
X0108486Y0122812D01*
X0108404Y0122731D02*
X0109754Y0124081D01*
X0110485Y0125845D01*
X0110485Y0127755D01*
X0109754Y0129519D01*
X0108404Y0130869D01*
X0106640Y0131600D01*
X0098730Y0131600D01*
X0096966Y0130869D01*
X0095616Y0129519D01*
X0094885Y0127755D01*
X0094885Y0125845D01*
X0095616Y0124081D01*
X0096966Y0122731D01*
X0098730Y0122000D01*
X0106640Y0122000D01*
X0108404Y0122731D01*
X0109684Y0124011D02*
X0111086Y0124011D01*
X0111086Y0125209D02*
X0110222Y0125209D01*
X0110485Y0126408D02*
X0111086Y0126408D01*
X0111086Y0127606D02*
X0110485Y0127606D01*
X0110050Y0128805D02*
X0111086Y0128805D01*
X0111086Y0130003D02*
X0109270Y0130003D01*
X0107601Y0131202D02*
X0111086Y0131202D01*
X0111086Y0132401D02*
X0107607Y0132401D01*
X0108404Y0132731D02*
X0109754Y0134081D01*
X0110485Y0135845D01*
X0110485Y0137755D01*
X0109754Y0139519D01*
X0108404Y0140869D01*
X0106640Y0141600D01*
X0098730Y0141600D01*
X0096966Y0140869D01*
X0095616Y0139519D01*
X0094885Y0137755D01*
X0094885Y0135845D01*
X0095616Y0134081D01*
X0096966Y0132731D01*
X0098730Y0132000D01*
X0106640Y0132000D01*
X0108404Y0132731D01*
X0109272Y0133599D02*
X0111086Y0133599D01*
X0111086Y0134798D02*
X0110051Y0134798D01*
X0110485Y0135996D02*
X0111086Y0135996D01*
X0111086Y0137195D02*
X0110485Y0137195D01*
X0110221Y0138393D02*
X0111086Y0138393D01*
X0111086Y0139592D02*
X0109682Y0139592D01*
X0108483Y0140790D02*
X0111086Y0140790D01*
X0106640Y0121600D02*
X0098730Y0121600D01*
X0096966Y0120869D01*
X0095616Y0119519D01*
X0094885Y0117755D01*
X0094885Y0115845D01*
X0095616Y0114081D01*
X0096966Y0112731D01*
X0098730Y0112000D01*
X0106640Y0112000D01*
X0108404Y0112731D01*
X0109754Y0114081D01*
X0110485Y0115845D01*
X0110485Y0117755D01*
X0109754Y0119519D01*
X0108404Y0120869D01*
X0106640Y0121600D01*
X0108858Y0120415D02*
X0111086Y0120415D01*
X0111086Y0119217D02*
X0109879Y0119217D01*
X0110376Y0118018D02*
X0111086Y0118018D01*
X0111086Y0116820D02*
X0110485Y0116820D01*
X0110392Y0115621D02*
X0111086Y0115621D01*
X0111086Y0114423D02*
X0109896Y0114423D01*
X0108898Y0113224D02*
X0111086Y0113224D01*
X0111086Y0112026D02*
X0106702Y0112026D01*
X0106640Y0111600D02*
X0098730Y0111600D01*
X0096966Y0110869D01*
X0095616Y0109519D01*
X0094885Y0107755D01*
X0094885Y0105845D01*
X0095616Y0104081D01*
X0096966Y0102731D01*
X0098730Y0102000D01*
X0106640Y0102000D01*
X0108404Y0102731D01*
X0109754Y0104081D01*
X0110485Y0105845D01*
X0110485Y0107755D01*
X0109754Y0109519D01*
X0108404Y0110869D01*
X0106640Y0111600D01*
X0108446Y0110827D02*
X0111086Y0110827D01*
X0111086Y0109629D02*
X0109644Y0109629D01*
X0110205Y0108430D02*
X0111086Y0108430D01*
X0111086Y0107232D02*
X0110485Y0107232D01*
X0110485Y0106033D02*
X0111086Y0106033D01*
X0111086Y0104835D02*
X0110066Y0104835D01*
X0109309Y0103636D02*
X0111086Y0103636D01*
X0111086Y0102438D02*
X0107697Y0102438D01*
X0107511Y0101239D02*
X0111086Y0101239D01*
X0111086Y0100041D02*
X0109233Y0100041D01*
X0109754Y0099519D02*
X0108404Y0100869D01*
X0106640Y0101600D01*
X0098730Y0101600D01*
X0096966Y0100869D01*
X0095616Y0099519D01*
X0094885Y0097755D01*
X0094885Y0095845D01*
X0095616Y0094081D01*
X0096966Y0092731D01*
X0098730Y0092000D01*
X0106640Y0092000D01*
X0108404Y0092731D01*
X0109754Y0094081D01*
X0110485Y0095845D01*
X0110485Y0097755D01*
X0109754Y0099519D01*
X0110035Y0098842D02*
X0111086Y0098842D01*
X0111086Y0097644D02*
X0110485Y0097644D01*
X0110485Y0096445D02*
X0111086Y0096445D01*
X0111086Y0095247D02*
X0110237Y0095247D01*
X0109721Y0094048D02*
X0111086Y0094048D01*
X0111086Y0092850D02*
X0108523Y0092850D01*
X0106792Y0082063D02*
X0111086Y0082063D01*
X0111086Y0059291D02*
X0109849Y0059291D01*
X0110345Y0058093D02*
X0111086Y0058093D01*
X0111086Y0056894D02*
X0110485Y0056894D01*
X0110423Y0055696D02*
X0111086Y0055696D01*
X0111086Y0054497D02*
X0109927Y0054497D01*
X0108972Y0053299D02*
X0111086Y0053299D01*
X0111086Y0052100D02*
X0106882Y0052100D01*
X0106640Y0051600D02*
X0098730Y0051600D01*
X0096966Y0050869D01*
X0095616Y0049519D01*
X0094885Y0047755D01*
X0094885Y0045845D01*
X0095616Y0044081D01*
X0096966Y0042731D01*
X0098730Y0042000D01*
X0106640Y0042000D01*
X0108404Y0042731D01*
X0109754Y0044081D01*
X0110485Y0045845D01*
X0110485Y0047755D01*
X0109754Y0049519D01*
X0108404Y0050869D01*
X0106640Y0051600D01*
X0108326Y0050902D02*
X0111086Y0050902D01*
X0111086Y0049703D02*
X0109570Y0049703D01*
X0110174Y0048505D02*
X0111086Y0048505D01*
X0111086Y0047306D02*
X0110485Y0047306D01*
X0110485Y0046108D02*
X0111086Y0046108D01*
X0111086Y0044909D02*
X0110097Y0044909D01*
X0109384Y0043711D02*
X0111086Y0043711D01*
X0111086Y0042512D02*
X0107876Y0042512D01*
X0107331Y0041314D02*
X0111086Y0041314D01*
X0111086Y0040115D02*
X0109158Y0040115D01*
X0109754Y0039519D02*
X0108404Y0040869D01*
X0106640Y0041600D01*
X0098730Y0041600D01*
X0096966Y0040869D01*
X0095616Y0039519D01*
X0094885Y0037755D01*
X0094885Y0035845D01*
X0095616Y0034081D01*
X0096966Y0032731D01*
X0098730Y0032000D01*
X0106640Y0032000D01*
X0108404Y0032731D01*
X0109754Y0034081D01*
X0110485Y0035845D01*
X0110485Y0037755D01*
X0109754Y0039519D01*
X0110004Y0038917D02*
X0111086Y0038917D01*
X0111086Y0037718D02*
X0110485Y0037718D01*
X0110485Y0036520D02*
X0111086Y0036520D01*
X0111086Y0035321D02*
X0110268Y0035321D01*
X0109771Y0034123D02*
X0111086Y0034123D01*
X0111086Y0032924D02*
X0108597Y0032924D01*
X0098488Y0052100D02*
X0046882Y0052100D01*
X0046762Y0051287D02*
X0046047Y0051400D01*
X0043085Y0051400D01*
X0043085Y0047200D01*
X0050279Y0047200D01*
X0050172Y0047877D01*
X0049948Y0048566D01*
X0049619Y0049211D01*
X0049194Y0049797D01*
X0048682Y0050309D01*
X0048096Y0050734D01*
X0047451Y0051063D01*
X0046762Y0051287D01*
X0047767Y0050902D02*
X0097045Y0050902D01*
X0095800Y0049703D02*
X0049262Y0049703D01*
X0049968Y0048505D02*
X0095196Y0048505D01*
X0094885Y0047306D02*
X0050262Y0047306D01*
X0050233Y0046108D02*
X0094885Y0046108D01*
X0095273Y0044909D02*
X0049884Y0044909D01*
X0049101Y0043711D02*
X0095986Y0043711D01*
X0097494Y0042512D02*
X0047374Y0042512D01*
X0047331Y0041314D02*
X0098039Y0041314D01*
X0096212Y0040115D02*
X0049158Y0040115D01*
X0050004Y0038917D02*
X0095366Y0038917D01*
X0094885Y0037718D02*
X0050485Y0037718D01*
X0050485Y0036520D02*
X0094885Y0036520D01*
X0095102Y0035321D02*
X0050268Y0035321D01*
X0049771Y0034123D02*
X0095599Y0034123D01*
X0096773Y0032924D02*
X0048597Y0032924D01*
X0051061Y0020605D02*
X0049831Y0019375D01*
X0049831Y0011230D01*
X0051061Y0010000D01*
X0056003Y0010000D01*
X0056755Y0010752D01*
X0057506Y0010000D01*
X0061381Y0010000D01*
X0062126Y0010745D01*
X0062871Y0010000D01*
X0066746Y0010000D01*
X0067497Y0010752D01*
X0068249Y0010000D01*
X0069988Y0010000D01*
X0071219Y0011230D01*
X0071219Y0011570D01*
X0071289Y0011464D01*
X0071289Y0011230D01*
X0071757Y0010762D01*
X0072124Y0010211D01*
X0072354Y0010165D01*
X0072519Y0010000D01*
X0073181Y0010000D01*
X0073830Y0009870D01*
X0074025Y0010000D01*
X0074259Y0010000D01*
X0074476Y0010218D01*
X0074694Y0010000D01*
X0078569Y0010000D01*
X0078780Y0010211D01*
X0078991Y0010000D01*
X0080731Y0010000D01*
X0081961Y0011230D01*
X0081961Y0011300D01*
X0083261Y0010000D01*
X0085001Y0010000D01*
X0086231Y0011230D01*
X0086231Y0012970D01*
X0083898Y0015303D01*
X0086231Y0017636D01*
X0086231Y0019375D01*
X0085001Y0020605D01*
X0083261Y0020605D01*
X0081961Y0019305D01*
X0081961Y0019375D01*
X0080731Y0020605D01*
X0078991Y0020605D01*
X0078780Y0020394D01*
X0078569Y0020605D01*
X0074694Y0020605D01*
X0074476Y0020388D01*
X0074259Y0020605D01*
X0072519Y0020605D01*
X0071289Y0019375D01*
X0071289Y0019036D01*
X0071219Y0019141D01*
X0071219Y0019375D01*
X0070750Y0019843D01*
X0070383Y0020394D01*
X0070154Y0020440D01*
X0069988Y0020605D01*
X0069326Y0020605D01*
X0068677Y0020735D01*
X0068483Y0020605D01*
X0068249Y0020605D01*
X0067781Y0020137D01*
X0067440Y0019911D01*
X0067434Y0019917D01*
X0066746Y0020605D01*
X0062871Y0020605D01*
X0062126Y0019861D01*
X0061381Y0020605D01*
X0057506Y0020605D01*
X0056755Y0019854D01*
X0056003Y0020605D01*
X0051061Y0020605D01*
X0050196Y0019740D02*
X0027166Y0019740D01*
X0028067Y0020939D02*
X0097106Y0020939D01*
X0095285Y0019740D02*
X0085866Y0019740D01*
X0086231Y0018542D02*
X0094087Y0018542D01*
X0093531Y0017343D02*
X0085939Y0017343D01*
X0084741Y0016145D02*
X0093035Y0016145D01*
X0092873Y0014946D02*
X0084255Y0014946D01*
X0085453Y0013748D02*
X0092873Y0013748D01*
X0092996Y0012549D02*
X0086231Y0012549D01*
X0086231Y0011351D02*
X0093492Y0011351D01*
X0093992Y0010152D02*
X0085154Y0010152D01*
X0083109Y0010152D02*
X0080883Y0010152D01*
X0078839Y0010152D02*
X0078721Y0010152D01*
X0074542Y0010152D02*
X0074411Y0010152D01*
X0072367Y0010152D02*
X0070141Y0010152D01*
X0071219Y0011351D02*
X0071289Y0011351D01*
X0068096Y0010152D02*
X0066898Y0010152D01*
X0062718Y0010152D02*
X0061533Y0010152D01*
X0057354Y0010152D02*
X0056155Y0010152D01*
X0050908Y0010152D02*
X0023069Y0010152D01*
X0023069Y0010491D02*
X0028585Y0010491D01*
X0028585Y0010571D01*
X0028440Y0011489D01*
X0028153Y0012372D01*
X0027731Y0013199D01*
X0027185Y0013951D01*
X0026529Y0014607D01*
X0025777Y0015153D01*
X0024950Y0015575D01*
X0024067Y0015862D01*
X0023149Y0016007D01*
X0023069Y0016007D01*
X0023069Y0010491D01*
X0022301Y0010491D01*
X0022301Y0009723D01*
X0023069Y0009723D01*
X0023069Y0010491D01*
X0022301Y0010491D02*
X0022301Y0016007D01*
X0022221Y0016007D01*
X0021303Y0015862D01*
X0020420Y0015575D01*
X0019593Y0015153D01*
X0018841Y0014607D01*
X0018185Y0013951D01*
X0017639Y0013199D01*
X0017217Y0012372D01*
X0016930Y0011489D01*
X0016785Y0010571D01*
X0016785Y0010491D01*
X0022301Y0010491D01*
X0022301Y0010152D02*
X0011985Y0010152D01*
X0011985Y0008954D02*
X0016894Y0008954D01*
X0016930Y0008725D02*
X0017217Y0007842D01*
X0017639Y0007015D01*
X0018185Y0006263D01*
X0018841Y0005607D01*
X0019593Y0005061D01*
X0020420Y0004639D01*
X0021303Y0004352D01*
X0022221Y0004207D01*
X0022301Y0004207D01*
X0022301Y0009723D01*
X0016785Y0009723D01*
X0016785Y0009643D01*
X0016930Y0008725D01*
X0017262Y0007755D02*
X0011985Y0007755D01*
X0011985Y0006557D02*
X0017972Y0006557D01*
X0019183Y0005358D02*
X0011985Y0005358D01*
X0011985Y0011351D02*
X0016909Y0011351D01*
X0017308Y0012549D02*
X0011985Y0012549D01*
X0011985Y0013748D02*
X0018037Y0013748D01*
X0019308Y0014946D02*
X0011985Y0014946D01*
X0011985Y0016145D02*
X0049831Y0016145D01*
X0049831Y0017343D02*
X0011985Y0017343D01*
X0011985Y0018542D02*
X0019648Y0018542D01*
X0018204Y0019740D02*
X0011985Y0019740D01*
X0011985Y0020939D02*
X0017303Y0020939D01*
X0016807Y0022137D02*
X0011985Y0022137D01*
X0011985Y0023336D02*
X0016585Y0023336D01*
X0016585Y0024534D02*
X0011985Y0024534D01*
X0011985Y0025733D02*
X0016847Y0025733D01*
X0017344Y0026932D02*
X0011985Y0026932D01*
X0011985Y0028130D02*
X0018302Y0028130D01*
X0019285Y0029329D02*
X0011985Y0029329D01*
X0011985Y0030527D02*
X0019285Y0030527D01*
X0019285Y0031726D02*
X0011985Y0031726D01*
X0011985Y0032924D02*
X0019285Y0032924D01*
X0019285Y0034123D02*
X0011985Y0034123D01*
X0011985Y0035321D02*
X0019285Y0035321D01*
X0019285Y0036520D02*
X0011985Y0036520D01*
X0011985Y0037718D02*
X0019285Y0037718D01*
X0019285Y0038917D02*
X0011985Y0038917D01*
X0011985Y0040115D02*
X0019285Y0040115D01*
X0019285Y0041314D02*
X0011985Y0041314D01*
X0011985Y0042512D02*
X0019285Y0042512D01*
X0019285Y0043711D02*
X0011985Y0043711D01*
X0011985Y0044909D02*
X0019285Y0044909D01*
X0019285Y0046108D02*
X0011985Y0046108D01*
X0011985Y0047306D02*
X0019285Y0047306D01*
X0019285Y0048505D02*
X0011985Y0048505D01*
X0011985Y0049703D02*
X0019285Y0049703D01*
X0019285Y0050902D02*
X0011985Y0050902D01*
X0011985Y0052100D02*
X0019285Y0052100D01*
X0019285Y0053299D02*
X0011985Y0053299D01*
X0011985Y0054497D02*
X0019285Y0054497D01*
X0019583Y0055696D02*
X0011985Y0055696D01*
X0011985Y0056894D02*
X0020471Y0056894D01*
X0021670Y0058093D02*
X0011985Y0058093D01*
X0011985Y0059291D02*
X0022868Y0059291D01*
X0024067Y0060490D02*
X0011985Y0060490D01*
X0011985Y0061688D02*
X0025265Y0061688D01*
X0026464Y0062887D02*
X0011985Y0062887D01*
X0011985Y0064085D02*
X0027662Y0064085D01*
X0028861Y0065284D02*
X0011985Y0065284D01*
X0011985Y0066482D02*
X0030059Y0066482D01*
X0031258Y0067681D02*
X0011985Y0067681D01*
X0011985Y0068879D02*
X0032456Y0068879D01*
X0034214Y0070078D02*
X0011985Y0070078D01*
X0011985Y0071276D02*
X0037949Y0071276D01*
X0037584Y0072475D02*
X0011985Y0072475D01*
X0011985Y0073673D02*
X0036023Y0073673D01*
X0035363Y0080865D02*
X0036961Y0080865D01*
X0038578Y0082063D02*
X0034165Y0082063D01*
X0032966Y0083262D02*
X0036435Y0083262D01*
X0035459Y0084460D02*
X0031768Y0084460D01*
X0030569Y0085659D02*
X0034962Y0085659D01*
X0034885Y0086857D02*
X0029371Y0086857D01*
X0028172Y0088056D02*
X0035010Y0088056D01*
X0035506Y0089254D02*
X0026974Y0089254D01*
X0024481Y0083262D02*
X0011985Y0083262D01*
X0011985Y0084460D02*
X0023282Y0084460D01*
X0022084Y0085659D02*
X0011985Y0085659D01*
X0011985Y0086857D02*
X0020885Y0086857D01*
X0019687Y0088056D02*
X0011985Y0088056D01*
X0011985Y0089254D02*
X0018488Y0089254D01*
X0017290Y0090453D02*
X0011985Y0090453D01*
X0011985Y0091651D02*
X0016091Y0091651D01*
X0014893Y0092850D02*
X0011985Y0092850D01*
X0011985Y0094048D02*
X0013694Y0094048D01*
X0012581Y0095247D02*
X0011985Y0095247D01*
X0011985Y0096445D02*
X0012185Y0096445D01*
X0012185Y0097644D02*
X0011985Y0097644D01*
X0011985Y0098842D02*
X0012185Y0098842D01*
X0012185Y0100041D02*
X0011985Y0100041D01*
X0011985Y0101239D02*
X0012185Y0101239D01*
X0012185Y0102438D02*
X0011985Y0102438D01*
X0011985Y0103636D02*
X0012185Y0103636D01*
X0012185Y0104835D02*
X0011985Y0104835D01*
X0011985Y0106033D02*
X0012185Y0106033D01*
X0012185Y0107232D02*
X0011985Y0107232D01*
X0011985Y0108430D02*
X0012185Y0108430D01*
X0012185Y0109629D02*
X0011985Y0109629D01*
X0011985Y0110827D02*
X0012185Y0110827D01*
X0012185Y0112026D02*
X0011985Y0112026D01*
X0011985Y0113224D02*
X0012185Y0113224D01*
X0012185Y0114423D02*
X0011985Y0114423D01*
X0011985Y0115621D02*
X0012185Y0115621D01*
X0012185Y0116820D02*
X0011985Y0116820D01*
X0011985Y0118018D02*
X0012185Y0118018D01*
X0012185Y0119217D02*
X0011985Y0119217D01*
X0011985Y0120415D02*
X0012185Y0120415D01*
X0012185Y0121614D02*
X0011985Y0121614D01*
X0011985Y0122812D02*
X0012185Y0122812D01*
X0012185Y0124011D02*
X0011985Y0124011D01*
X0011985Y0125209D02*
X0012185Y0125209D01*
X0012185Y0126408D02*
X0011985Y0126408D01*
X0011985Y0127606D02*
X0012185Y0127606D01*
X0012185Y0128805D02*
X0011985Y0128805D01*
X0011985Y0130003D02*
X0012185Y0130003D01*
X0012185Y0131202D02*
X0011985Y0131202D01*
X0011985Y0132401D02*
X0012185Y0132401D01*
X0012185Y0133599D02*
X0011985Y0133599D01*
X0011985Y0134798D02*
X0012185Y0134798D01*
X0012185Y0135996D02*
X0011985Y0135996D01*
X0011985Y0137195D02*
X0012185Y0137195D01*
X0012185Y0138393D02*
X0011985Y0138393D01*
X0011985Y0139592D02*
X0012185Y0139592D01*
X0012185Y0140790D02*
X0011985Y0140790D01*
X0011985Y0141989D02*
X0012185Y0141989D01*
X0012185Y0143187D02*
X0011985Y0143187D01*
X0011985Y0144386D02*
X0012185Y0144386D01*
X0012185Y0145584D02*
X0011985Y0145584D01*
X0011985Y0146783D02*
X0012185Y0146783D01*
X0012185Y0147981D02*
X0011985Y0147981D01*
X0011985Y0149180D02*
X0012185Y0149180D01*
X0012185Y0150378D02*
X0011985Y0150378D01*
X0011985Y0151577D02*
X0012185Y0151577D01*
X0012185Y0152775D02*
X0011985Y0152775D01*
X0011985Y0153974D02*
X0012185Y0153974D01*
X0012185Y0155172D02*
X0011985Y0155172D01*
X0011985Y0156371D02*
X0012185Y0156371D01*
X0012185Y0157569D02*
X0011985Y0157569D01*
X0011985Y0158768D02*
X0012185Y0158768D01*
X0012185Y0159966D02*
X0011985Y0159966D01*
X0011985Y0161165D02*
X0012185Y0161165D01*
X0012185Y0162363D02*
X0011985Y0162363D01*
X0011985Y0163562D02*
X0012185Y0163562D01*
X0012185Y0164760D02*
X0011985Y0164760D01*
X0011985Y0165959D02*
X0012185Y0165959D01*
X0012185Y0167157D02*
X0011985Y0167157D01*
X0011985Y0168356D02*
X0012185Y0168356D01*
X0012185Y0169554D02*
X0011985Y0169554D01*
X0011985Y0170753D02*
X0012185Y0170753D01*
X0012185Y0171951D02*
X0011985Y0171951D01*
X0011985Y0173150D02*
X0012185Y0173150D01*
X0012185Y0174348D02*
X0011985Y0174348D01*
X0011985Y0175547D02*
X0012185Y0175547D01*
X0012185Y0176745D02*
X0011985Y0176745D01*
X0011985Y0177944D02*
X0012185Y0177944D01*
X0012185Y0179142D02*
X0011985Y0179142D01*
X0011985Y0180341D02*
X0012185Y0180341D01*
X0012185Y0181539D02*
X0011985Y0181539D01*
X0011985Y0182738D02*
X0012185Y0182738D01*
X0012185Y0183937D02*
X0011985Y0183937D01*
X0011985Y0185135D02*
X0012185Y0185135D01*
X0012185Y0186334D02*
X0011985Y0186334D01*
X0011985Y0187532D02*
X0012185Y0187532D01*
X0012185Y0188731D02*
X0011985Y0188731D01*
X0011985Y0189929D02*
X0012185Y0189929D01*
X0012185Y0191128D02*
X0011985Y0191128D01*
X0011985Y0192326D02*
X0012185Y0192326D01*
X0012185Y0193525D02*
X0011985Y0193525D01*
X0011985Y0194723D02*
X0012185Y0194723D01*
X0012185Y0195922D02*
X0011985Y0195922D01*
X0011985Y0197120D02*
X0012185Y0197120D01*
X0012185Y0198319D02*
X0011985Y0198319D01*
X0011985Y0199517D02*
X0012185Y0199517D01*
X0012185Y0200716D02*
X0011985Y0200716D01*
X0011985Y0201914D02*
X0012185Y0201914D01*
X0012185Y0203113D02*
X0011985Y0203113D01*
X0011985Y0204311D02*
X0012185Y0204311D01*
X0012185Y0205510D02*
X0011985Y0205510D01*
X0011985Y0206708D02*
X0012185Y0206708D01*
X0012185Y0207907D02*
X0011985Y0207907D01*
X0011985Y0209105D02*
X0012185Y0209105D01*
X0012185Y0210304D02*
X0011985Y0210304D01*
X0011985Y0211502D02*
X0012185Y0211502D01*
X0012185Y0212701D02*
X0011985Y0212701D01*
X0011985Y0213899D02*
X0012185Y0213899D01*
X0012185Y0215098D02*
X0011985Y0215098D01*
X0011985Y0216296D02*
X0012185Y0216296D01*
X0012185Y0217495D02*
X0011985Y0217495D01*
X0011985Y0218693D02*
X0012185Y0218693D01*
X0012185Y0219892D02*
X0011985Y0219892D01*
X0011985Y0221090D02*
X0012185Y0221090D01*
X0012185Y0222289D02*
X0011985Y0222289D01*
X0011985Y0223487D02*
X0012185Y0223487D01*
X0012185Y0224686D02*
X0011985Y0224686D01*
X0011985Y0225884D02*
X0012185Y0225884D01*
X0012185Y0227083D02*
X0011985Y0227083D01*
X0011985Y0228281D02*
X0012185Y0228281D01*
X0012185Y0229480D02*
X0011985Y0229480D01*
X0011985Y0230678D02*
X0012185Y0230678D01*
X0012185Y0231877D02*
X0011985Y0231877D01*
X0011985Y0233075D02*
X0012185Y0233075D01*
X0012185Y0234274D02*
X0011985Y0234274D01*
X0011985Y0235472D02*
X0012185Y0235472D01*
X0012185Y0236671D02*
X0011985Y0236671D01*
X0011985Y0237870D02*
X0012185Y0237870D01*
X0012185Y0239068D02*
X0011985Y0239068D01*
X0011985Y0240267D02*
X0012185Y0240267D01*
X0012185Y0241465D02*
X0011985Y0241465D01*
X0011985Y0242664D02*
X0012296Y0242664D01*
X0011985Y0243862D02*
X0013004Y0243862D01*
X0011985Y0245061D02*
X0014203Y0245061D01*
X0015401Y0246259D02*
X0011985Y0246259D01*
X0011985Y0247458D02*
X0016600Y0247458D01*
X0017799Y0248656D02*
X0011985Y0248656D01*
X0011985Y0249855D02*
X0020865Y0249855D01*
X0020865Y0251053D02*
X0011985Y0251053D01*
X0011985Y0252252D02*
X0020865Y0252252D01*
X0020865Y0253450D02*
X0011985Y0253450D01*
X0011985Y0254649D02*
X0020865Y0254649D01*
X0020865Y0255847D02*
X0011985Y0255847D01*
X0011985Y0257046D02*
X0020865Y0257046D01*
X0020865Y0258244D02*
X0011985Y0258244D01*
X0011985Y0259443D02*
X0020865Y0259443D01*
X0020865Y0260641D02*
X0011985Y0260641D01*
X0011985Y0261840D02*
X0021104Y0261840D01*
X0033872Y0261840D02*
X0071781Y0261840D01*
X0071459Y0260641D02*
X0034111Y0260641D01*
X0034111Y0259443D02*
X0071459Y0259443D01*
X0071459Y0258244D02*
X0034111Y0258244D01*
X0034111Y0257046D02*
X0071459Y0257046D01*
X0071538Y0255847D02*
X0034111Y0255847D01*
X0034111Y0254649D02*
X0071459Y0254649D01*
X0071459Y0252252D02*
X0070898Y0252252D01*
X0070182Y0245061D02*
X0034111Y0245061D01*
X0034111Y0246259D02*
X0065379Y0246259D01*
X0064356Y0247458D02*
X0034111Y0247458D01*
X0034111Y0248656D02*
X0063904Y0248656D01*
X0063904Y0249855D02*
X0034111Y0249855D01*
X0034111Y0251053D02*
X0064319Y0251053D01*
X0065289Y0252252D02*
X0034111Y0252252D01*
X0034111Y0253450D02*
X0077498Y0253450D01*
X0078266Y0253450D02*
X0088720Y0253450D01*
X0088720Y0252252D02*
X0084305Y0252252D01*
X0084267Y0251053D02*
X0088542Y0251053D01*
X0089286Y0254649D02*
X0084305Y0254649D01*
X0084226Y0255847D02*
X0088920Y0255847D01*
X0088920Y0257046D02*
X0084305Y0257046D01*
X0084305Y0258244D02*
X0088920Y0258244D01*
X0088920Y0259443D02*
X0084305Y0259443D01*
X0084305Y0259271D02*
X0084305Y0261066D01*
X0084196Y0261473D01*
X0083985Y0261838D01*
X0083687Y0262135D01*
X0083322Y0262346D01*
X0082915Y0262455D01*
X0078266Y0262455D01*
X0078266Y0259271D01*
X0084305Y0259271D01*
X0084305Y0260641D02*
X0089283Y0260641D01*
X0092301Y0260641D02*
X0093069Y0260641D01*
X0093069Y0261215D02*
X0093069Y0258031D01*
X0096450Y0258031D01*
X0096450Y0259826D01*
X0096341Y0260233D01*
X0096131Y0260597D01*
X0095833Y0260895D01*
X0095468Y0261106D01*
X0095061Y0261215D01*
X0093069Y0261215D01*
X0093069Y0259443D02*
X0092301Y0259443D01*
X0092301Y0258244D02*
X0093069Y0258244D01*
X0096450Y0258244D02*
X0111086Y0258244D01*
X0111086Y0257046D02*
X0096450Y0257046D01*
X0096450Y0255847D02*
X0111086Y0255847D01*
X0111086Y0254649D02*
X0096084Y0254649D01*
X0096650Y0253450D02*
X0111086Y0253450D01*
X0111086Y0252252D02*
X0096650Y0252252D01*
X0096650Y0251053D02*
X0111086Y0251053D01*
X0111086Y0249855D02*
X0096650Y0249855D01*
X0096650Y0248656D02*
X0111086Y0248656D01*
X0111086Y0247458D02*
X0095869Y0247458D01*
X0092233Y0246259D02*
X0111086Y0246259D01*
X0111086Y0245061D02*
X0107194Y0245061D01*
X0108424Y0243862D02*
X0111086Y0243862D01*
X0111086Y0242664D02*
X0108920Y0242664D01*
X0108966Y0241465D02*
X0111086Y0241465D01*
X0111086Y0240267D02*
X0108642Y0240267D01*
X0107800Y0239068D02*
X0111086Y0239068D01*
X0111086Y0237870D02*
X0106448Y0237870D01*
X0108161Y0236671D02*
X0111086Y0236671D01*
X0111086Y0235472D02*
X0108792Y0235472D01*
X0108966Y0234274D02*
X0111086Y0234274D01*
X0111086Y0233075D02*
X0108770Y0233075D01*
X0108109Y0231877D02*
X0111086Y0231877D01*
X0111086Y0230678D02*
X0106322Y0230678D01*
X0107852Y0229480D02*
X0111086Y0229480D01*
X0111086Y0228281D02*
X0108664Y0228281D01*
X0108966Y0227083D02*
X0111086Y0227083D01*
X0111086Y0225884D02*
X0108898Y0225884D01*
X0108402Y0224686D02*
X0111086Y0224686D01*
X0111086Y0223487D02*
X0107068Y0223487D01*
X0103302Y0223487D02*
X0084505Y0223487D01*
X0084505Y0222289D02*
X0111086Y0222289D01*
X0111086Y0221090D02*
X0084505Y0221090D01*
X0084505Y0219892D02*
X0111086Y0219892D01*
X0111086Y0218693D02*
X0084505Y0218693D01*
X0084934Y0217495D02*
X0085533Y0217495D01*
X0082801Y0211502D02*
X0072361Y0211502D01*
X0072361Y0210884D02*
X0075545Y0210884D01*
X0075545Y0206235D01*
X0075436Y0205828D01*
X0075225Y0205463D01*
X0074927Y0205165D01*
X0074562Y0204955D01*
X0074156Y0204846D01*
X0072361Y0204846D01*
X0072361Y0210884D01*
X0072361Y0210304D02*
X0071592Y0210304D01*
X0071592Y0209105D02*
X0072361Y0209105D01*
X0072361Y0207907D02*
X0071592Y0207907D01*
X0071592Y0206708D02*
X0072361Y0206708D01*
X0072361Y0205510D02*
X0071592Y0205510D01*
X0075252Y0205510D02*
X0111086Y0205510D01*
X0111086Y0206708D02*
X0075545Y0206708D01*
X0075545Y0207907D02*
X0111086Y0207907D01*
X0111086Y0209105D02*
X0075545Y0209105D01*
X0075545Y0210304D02*
X0111086Y0210304D01*
X0111086Y0211502D02*
X0090235Y0211502D01*
X0091115Y0212701D02*
X0111086Y0212701D01*
X0111086Y0213899D02*
X0091466Y0213899D01*
X0091447Y0215098D02*
X0111086Y0215098D01*
X0111086Y0216296D02*
X0090951Y0216296D01*
X0089837Y0217495D02*
X0111086Y0217495D01*
X0111086Y0204311D02*
X0058441Y0204311D01*
X0059705Y0203113D02*
X0060665Y0203113D01*
X0060138Y0194723D02*
X0059672Y0194723D01*
X0057420Y0194723D02*
X0057045Y0194723D01*
X0057045Y0194975D02*
X0055447Y0194975D01*
X0055040Y0194866D01*
X0054675Y0194655D01*
X0054377Y0194357D01*
X0054167Y0193992D01*
X0054057Y0193585D01*
X0054057Y0191987D01*
X0057045Y0191987D01*
X0057045Y0194975D01*
X0057045Y0193525D02*
X0057420Y0193525D01*
X0057420Y0192326D02*
X0057045Y0192326D01*
X0057045Y0191128D02*
X0057420Y0191128D01*
X0057420Y0189929D02*
X0057045Y0189929D01*
X0057045Y0188731D02*
X0057420Y0188731D01*
X0059411Y0188731D02*
X0060512Y0188731D01*
X0065764Y0188731D02*
X0111086Y0188731D01*
X0111086Y0189929D02*
X0066513Y0189929D01*
X0066513Y0191128D02*
X0111086Y0191128D01*
X0111086Y0192326D02*
X0066513Y0192326D01*
X0066513Y0193525D02*
X0111086Y0193525D01*
X0111086Y0194723D02*
X0066138Y0194723D01*
X0066833Y0195922D02*
X0111086Y0195922D01*
X0111086Y0197120D02*
X0067300Y0197120D01*
X0067300Y0198319D02*
X0111086Y0198319D01*
X0111086Y0199517D02*
X0067300Y0199517D01*
X0067300Y0200716D02*
X0111086Y0200716D01*
X0111086Y0201914D02*
X0067300Y0201914D01*
X0066398Y0203113D02*
X0111086Y0203113D01*
X0111086Y0187532D02*
X0023185Y0187532D01*
X0023185Y0186334D02*
X0111086Y0186334D01*
X0111086Y0185135D02*
X0023185Y0185135D01*
X0023185Y0183937D02*
X0111086Y0183937D01*
X0111086Y0182738D02*
X0023185Y0182738D01*
X0023185Y0181539D02*
X0038584Y0181539D01*
X0038730Y0181600D02*
X0036966Y0180869D01*
X0035616Y0179519D01*
X0034885Y0177755D01*
X0034885Y0175845D01*
X0035616Y0174081D01*
X0036966Y0172731D01*
X0038730Y0172000D01*
X0046640Y0172000D01*
X0048404Y0172731D01*
X0049754Y0174081D01*
X0050485Y0175845D01*
X0050485Y0177755D01*
X0049754Y0179519D01*
X0048404Y0180869D01*
X0046640Y0181600D01*
X0038730Y0181600D01*
X0036438Y0180341D02*
X0023387Y0180341D01*
X0024585Y0179142D02*
X0035460Y0179142D01*
X0034963Y0177944D02*
X0025784Y0177944D01*
X0026982Y0176745D02*
X0034885Y0176745D01*
X0035009Y0175547D02*
X0028181Y0175547D01*
X0029379Y0174348D02*
X0035505Y0174348D01*
X0036547Y0173150D02*
X0030578Y0173150D01*
X0028085Y0167157D02*
X0018185Y0167157D01*
X0018185Y0165959D02*
X0029284Y0165959D01*
X0030482Y0164760D02*
X0018185Y0164760D01*
X0018185Y0168356D02*
X0026887Y0168356D01*
X0025688Y0169554D02*
X0018185Y0169554D01*
X0018185Y0170753D02*
X0024490Y0170753D01*
X0023291Y0171951D02*
X0018185Y0171951D01*
X0018185Y0173150D02*
X0022092Y0173150D01*
X0020894Y0174348D02*
X0018185Y0174348D01*
X0018185Y0175547D02*
X0019695Y0175547D01*
X0018497Y0176745D02*
X0018185Y0176745D01*
X0023185Y0188731D02*
X0042107Y0188731D01*
X0041357Y0189929D02*
X0023185Y0189929D01*
X0023185Y0191128D02*
X0041357Y0191128D01*
X0040694Y0192326D02*
X0023185Y0192326D01*
X0023185Y0193525D02*
X0039851Y0193525D01*
X0039007Y0194723D02*
X0023185Y0194723D01*
X0023185Y0195922D02*
X0036038Y0195922D01*
X0035570Y0197120D02*
X0023185Y0197120D01*
X0023185Y0198319D02*
X0035570Y0198319D01*
X0035570Y0199517D02*
X0023185Y0199517D01*
X0023185Y0200716D02*
X0035570Y0200716D01*
X0035570Y0201914D02*
X0023185Y0201914D01*
X0023185Y0203113D02*
X0036472Y0203113D01*
X0042205Y0203113D02*
X0043165Y0203113D01*
X0045954Y0204311D02*
X0023185Y0204311D01*
X0023185Y0205510D02*
X0029816Y0205510D01*
X0029625Y0206708D02*
X0023185Y0206708D01*
X0023185Y0207907D02*
X0029625Y0207907D01*
X0029625Y0209105D02*
X0023185Y0209105D01*
X0023185Y0210304D02*
X0029625Y0210304D01*
X0029625Y0211502D02*
X0023185Y0211502D01*
X0023185Y0212701D02*
X0029625Y0212701D01*
X0029625Y0213899D02*
X0023185Y0213899D01*
X0023185Y0215098D02*
X0029625Y0215098D01*
X0029625Y0216296D02*
X0023185Y0216296D01*
X0027104Y0217495D02*
X0027872Y0217495D01*
X0027872Y0218693D02*
X0027104Y0218693D01*
X0027104Y0219892D02*
X0027872Y0219892D01*
X0033911Y0219892D02*
X0071259Y0219892D01*
X0071259Y0221090D02*
X0033911Y0221090D01*
X0033911Y0222289D02*
X0071259Y0222289D01*
X0071259Y0223487D02*
X0034111Y0223487D01*
X0034111Y0224686D02*
X0071259Y0224686D01*
X0071259Y0225884D02*
X0034111Y0225884D01*
X0034111Y0227083D02*
X0071259Y0227083D01*
X0071259Y0228281D02*
X0034111Y0228281D01*
X0034111Y0229480D02*
X0071259Y0229480D01*
X0071259Y0230678D02*
X0034111Y0230678D01*
X0034111Y0231877D02*
X0071259Y0231877D01*
X0071259Y0233075D02*
X0034111Y0233075D01*
X0034111Y0234274D02*
X0071259Y0234274D01*
X0071259Y0235472D02*
X0034111Y0235472D01*
X0034111Y0236671D02*
X0071259Y0236671D01*
X0071259Y0237870D02*
X0034111Y0237870D01*
X0034111Y0239068D02*
X0071259Y0239068D01*
X0071459Y0240267D02*
X0034111Y0240267D01*
X0034111Y0241465D02*
X0071459Y0241465D01*
X0071459Y0243862D02*
X0034111Y0243862D01*
X0034111Y0242664D02*
X0077498Y0242664D01*
X0078266Y0242664D02*
X0089306Y0242664D01*
X0090504Y0243862D02*
X0084305Y0243862D01*
X0084305Y0241465D02*
X0088107Y0241465D01*
X0086909Y0240267D02*
X0084305Y0240267D01*
X0090668Y0245061D02*
X0103176Y0245061D01*
X0096450Y0259443D02*
X0111086Y0259443D01*
X0111086Y0260641D02*
X0096087Y0260641D01*
X0083983Y0261840D02*
X0111086Y0261840D01*
X0081242Y0212701D02*
X0075545Y0212701D01*
X0075545Y0213899D02*
X0080044Y0213899D01*
X0078845Y0215098D02*
X0075545Y0215098D01*
X0075545Y0216296D02*
X0077647Y0216296D01*
X0071259Y0218693D02*
X0033911Y0218693D01*
X0047504Y0194723D02*
X0048198Y0194723D01*
X0049333Y0195922D02*
X0053538Y0195922D01*
X0053077Y0194723D02*
X0054793Y0194723D01*
X0054057Y0193525D02*
X0053813Y0193525D01*
X0053813Y0192326D02*
X0054057Y0192326D01*
X0053813Y0191613D02*
X0050825Y0191613D01*
X0050825Y0188625D01*
X0052423Y0188625D01*
X0052830Y0188734D01*
X0053195Y0188945D01*
X0053493Y0189243D01*
X0053704Y0189608D01*
X0053813Y0190015D01*
X0053813Y0191613D01*
X0053813Y0191128D02*
X0054057Y0191128D01*
X0054080Y0189929D02*
X0053790Y0189929D01*
X0052816Y0188731D02*
X0055054Y0188731D01*
X0053070Y0197120D02*
X0049800Y0197120D01*
X0049800Y0198319D02*
X0053070Y0198319D01*
X0052683Y0199517D02*
X0049800Y0199517D01*
X0050843Y0200716D02*
X0052441Y0200716D01*
X0052441Y0201914D02*
X0052042Y0201914D01*
X0050825Y0194723D02*
X0050450Y0194723D01*
X0050450Y0193525D02*
X0050825Y0193525D01*
X0050825Y0192326D02*
X0050450Y0192326D01*
X0050450Y0191128D02*
X0050825Y0191128D01*
X0050825Y0189929D02*
X0050450Y0189929D01*
X0050450Y0188731D02*
X0050825Y0188731D01*
X0048459Y0188731D02*
X0047358Y0188731D01*
X0046786Y0181539D02*
X0098584Y0181539D01*
X0098730Y0181600D02*
X0096966Y0180869D01*
X0095616Y0179519D01*
X0094885Y0177755D01*
X0094885Y0175845D01*
X0095616Y0174081D01*
X0096966Y0172731D01*
X0098730Y0172000D01*
X0106640Y0172000D01*
X0108404Y0172731D01*
X0109754Y0174081D01*
X0110485Y0175845D01*
X0110485Y0177755D01*
X0109754Y0179519D01*
X0108404Y0180869D01*
X0106640Y0181600D01*
X0098730Y0181600D01*
X0096438Y0180341D02*
X0048932Y0180341D01*
X0049910Y0179142D02*
X0095460Y0179142D01*
X0094963Y0177944D02*
X0050407Y0177944D01*
X0050485Y0176745D02*
X0094885Y0176745D01*
X0095009Y0175547D02*
X0050361Y0175547D01*
X0049865Y0174348D02*
X0095505Y0174348D01*
X0096547Y0173150D02*
X0048823Y0173150D01*
X0048520Y0170753D02*
X0096850Y0170753D01*
X0095651Y0169554D02*
X0049719Y0169554D01*
X0050236Y0168356D02*
X0095134Y0168356D01*
X0094885Y0167157D02*
X0050485Y0167157D01*
X0050485Y0165959D02*
X0094885Y0165959D01*
X0095334Y0164760D02*
X0050036Y0164760D01*
X0049235Y0163562D02*
X0096135Y0163562D01*
X0097853Y0162363D02*
X0047517Y0162363D01*
X0047690Y0161165D02*
X0097680Y0161165D01*
X0096063Y0159966D02*
X0049307Y0159966D01*
X0050065Y0158768D02*
X0095305Y0158768D01*
X0094885Y0157569D02*
X0050485Y0157569D01*
X0050485Y0156371D02*
X0094885Y0156371D01*
X0095164Y0155172D02*
X0050206Y0155172D01*
X0049647Y0153974D02*
X0095723Y0153974D01*
X0096475Y0150378D02*
X0048895Y0150378D01*
X0049895Y0149180D02*
X0095475Y0149180D01*
X0094979Y0147981D02*
X0050391Y0147981D01*
X0050485Y0146783D02*
X0094885Y0146783D01*
X0094993Y0145584D02*
X0050377Y0145584D01*
X0049880Y0144386D02*
X0095490Y0144386D01*
X0096510Y0143187D02*
X0048860Y0143187D01*
X0048483Y0140790D02*
X0096887Y0140790D01*
X0095688Y0139592D02*
X0049682Y0139592D01*
X0050221Y0138393D02*
X0095149Y0138393D01*
X0094885Y0137195D02*
X0050485Y0137195D01*
X0050485Y0135996D02*
X0094885Y0135996D01*
X0095319Y0134798D02*
X0050051Y0134798D01*
X0049272Y0133599D02*
X0096098Y0133599D01*
X0097763Y0132401D02*
X0047607Y0132401D01*
X0047601Y0131202D02*
X0097769Y0131202D01*
X0096100Y0130003D02*
X0049270Y0130003D01*
X0050050Y0128805D02*
X0095320Y0128805D01*
X0094885Y0127606D02*
X0050485Y0127606D01*
X0050485Y0126408D02*
X0094885Y0126408D01*
X0095148Y0125209D02*
X0050222Y0125209D01*
X0049684Y0124011D02*
X0095686Y0124011D01*
X0096884Y0122812D02*
X0048486Y0122812D01*
X0048858Y0120415D02*
X0096512Y0120415D01*
X0095491Y0119217D02*
X0049879Y0119217D01*
X0050376Y0118018D02*
X0094994Y0118018D01*
X0094885Y0116820D02*
X0050485Y0116820D01*
X0050392Y0115621D02*
X0094978Y0115621D01*
X0095474Y0114423D02*
X0049896Y0114423D01*
X0048898Y0113224D02*
X0096472Y0113224D01*
X0096924Y0110827D02*
X0048446Y0110827D01*
X0048404Y0110869D02*
X0046640Y0111600D01*
X0038730Y0111600D01*
X0036966Y0110869D01*
X0035616Y0109519D01*
X0034885Y0107755D01*
X0034885Y0105845D01*
X0035616Y0104081D01*
X0036966Y0102731D01*
X0038730Y0102000D01*
X0046640Y0102000D01*
X0048404Y0102731D01*
X0049754Y0104081D01*
X0050485Y0105845D01*
X0050485Y0107755D01*
X0049754Y0109519D01*
X0048404Y0110869D01*
X0046702Y0112026D02*
X0098668Y0112026D01*
X0096061Y0103636D02*
X0049309Y0103636D01*
X0050066Y0104835D02*
X0095304Y0104835D01*
X0094885Y0106033D02*
X0050485Y0106033D01*
X0050485Y0107232D02*
X0094885Y0107232D01*
X0095165Y0108430D02*
X0050205Y0108430D01*
X0049644Y0109629D02*
X0095726Y0109629D01*
X0097673Y0102438D02*
X0047697Y0102438D01*
X0047511Y0101239D02*
X0097859Y0101239D01*
X0096138Y0100041D02*
X0049233Y0100041D01*
X0050035Y0098842D02*
X0095335Y0098842D01*
X0094885Y0097644D02*
X0050485Y0097644D01*
X0050485Y0096445D02*
X0094885Y0096445D01*
X0095133Y0095247D02*
X0050237Y0095247D01*
X0049721Y0094048D02*
X0095649Y0094048D01*
X0096847Y0092850D02*
X0048523Y0092850D01*
X0048821Y0090453D02*
X0096549Y0090453D01*
X0095506Y0089254D02*
X0049864Y0089254D01*
X0050360Y0088056D02*
X0095010Y0088056D01*
X0094885Y0086857D02*
X0050485Y0086857D01*
X0050408Y0085659D02*
X0094962Y0085659D01*
X0095459Y0084460D02*
X0049911Y0084460D01*
X0048935Y0083262D02*
X0096435Y0083262D01*
X0096961Y0080865D02*
X0048409Y0080865D01*
X0049607Y0079666D02*
X0095763Y0079666D01*
X0095180Y0078468D02*
X0050190Y0078468D01*
X0050485Y0077269D02*
X0094885Y0077269D01*
X0094885Y0076070D02*
X0050485Y0076070D01*
X0050082Y0074872D02*
X0095288Y0074872D01*
X0096023Y0073673D02*
X0049347Y0073673D01*
X0047786Y0072475D02*
X0097584Y0072475D01*
X0097949Y0071276D02*
X0047421Y0071276D01*
X0049195Y0070078D02*
X0096175Y0070078D01*
X0095351Y0068879D02*
X0050019Y0068879D01*
X0050485Y0067681D02*
X0094885Y0067681D01*
X0094885Y0066482D02*
X0050485Y0066482D01*
X0050253Y0065284D02*
X0095118Y0065284D01*
X0095614Y0064085D02*
X0049756Y0064085D01*
X0048560Y0062887D02*
X0096810Y0062887D01*
X0096587Y0060490D02*
X0048783Y0060490D01*
X0049849Y0059291D02*
X0095522Y0059291D01*
X0095025Y0058093D02*
X0050345Y0058093D01*
X0050485Y0056894D02*
X0094885Y0056894D01*
X0094947Y0055696D02*
X0050423Y0055696D01*
X0049927Y0054497D02*
X0095443Y0054497D01*
X0096398Y0053299D02*
X0048972Y0053299D01*
X0043085Y0050902D02*
X0042285Y0050902D01*
X0042285Y0049703D02*
X0043085Y0049703D01*
X0043085Y0048505D02*
X0042285Y0048505D01*
X0042285Y0047306D02*
X0043085Y0047306D01*
X0043085Y0046108D02*
X0042285Y0046108D01*
X0042285Y0044909D02*
X0043085Y0044909D01*
X0043085Y0043711D02*
X0042285Y0043711D01*
X0042285Y0042512D02*
X0043085Y0042512D01*
X0036810Y0062887D02*
X0036080Y0062887D01*
X0032870Y0074872D02*
X0011985Y0074872D01*
X0011985Y0076070D02*
X0031672Y0076070D01*
X0030473Y0077269D02*
X0011985Y0077269D01*
X0011985Y0078468D02*
X0029275Y0078468D01*
X0028076Y0079666D02*
X0011985Y0079666D01*
X0011985Y0080865D02*
X0026878Y0080865D01*
X0025679Y0082063D02*
X0011985Y0082063D01*
X0030847Y0098842D02*
X0035335Y0098842D01*
X0036138Y0100041D02*
X0031985Y0100041D01*
X0031985Y0101239D02*
X0037859Y0101239D01*
X0037673Y0102438D02*
X0031267Y0102438D01*
X0031371Y0103636D02*
X0036061Y0103636D01*
X0035304Y0104835D02*
X0031985Y0104835D01*
X0031942Y0106033D02*
X0034885Y0106033D01*
X0034885Y0107232D02*
X0031724Y0107232D01*
X0033990Y0108430D02*
X0035165Y0108430D01*
X0035726Y0109629D02*
X0034120Y0109629D01*
X0034120Y0110827D02*
X0036924Y0110827D01*
X0038668Y0112026D02*
X0033462Y0112026D01*
X0032264Y0113224D02*
X0036472Y0113224D01*
X0035474Y0114423D02*
X0031985Y0114423D01*
X0031985Y0115621D02*
X0034978Y0115621D01*
X0034885Y0116820D02*
X0031985Y0116820D01*
X0031780Y0118018D02*
X0034994Y0118018D01*
X0035491Y0119217D02*
X0031885Y0119217D01*
X0046696Y0151577D02*
X0098674Y0151577D01*
X0096922Y0152775D02*
X0048448Y0152775D01*
X0046792Y0082063D02*
X0098578Y0082063D01*
X0082396Y0019740D02*
X0081596Y0019740D01*
X0071654Y0019740D02*
X0070853Y0019740D01*
X0049831Y0018542D02*
X0025722Y0018542D01*
X0026062Y0014946D02*
X0049831Y0014946D01*
X0049831Y0013748D02*
X0027333Y0013748D01*
X0028062Y0012549D02*
X0049831Y0012549D01*
X0049831Y0011351D02*
X0028462Y0011351D01*
X0028476Y0008954D02*
X0095191Y0008954D01*
X0096879Y0007755D02*
X0028108Y0007755D01*
X0023069Y0007755D02*
X0022301Y0007755D01*
X0022301Y0006557D02*
X0023069Y0006557D01*
X0023069Y0005358D02*
X0022301Y0005358D01*
X0022301Y0008954D02*
X0023069Y0008954D01*
X0023069Y0011351D02*
X0022301Y0011351D01*
X0022301Y0012549D02*
X0023069Y0012549D01*
X0023069Y0013748D02*
X0022301Y0013748D01*
X0022301Y0014946D02*
X0023069Y0014946D01*
X0106786Y0181539D02*
X0111086Y0181539D01*
X0111086Y0180341D02*
X0108932Y0180341D01*
X0109910Y0179142D02*
X0111086Y0179142D01*
X0111086Y0177944D02*
X0110407Y0177944D01*
X0110485Y0176745D02*
X0111086Y0176745D01*
X0111086Y0175547D02*
X0110361Y0175547D01*
X0109865Y0174348D02*
X0111086Y0174348D01*
X0111086Y0173150D02*
X0108823Y0173150D01*
X0078266Y0254649D02*
X0077498Y0254649D01*
X0077498Y0255847D02*
X0078266Y0255847D01*
X0078266Y0257046D02*
X0077498Y0257046D01*
X0077498Y0258244D02*
X0078266Y0258244D01*
X0078266Y0259443D02*
X0077498Y0259443D01*
X0077498Y0260641D02*
X0078266Y0260641D01*
X0078266Y0261840D02*
X0077498Y0261840D01*
D19*
X0077882Y0258887D02*
X0091445Y0258887D01*
X0092685Y0257646D01*
X0092685Y0250954D02*
X0089594Y0247863D01*
X0077882Y0247863D01*
X0076819Y0246800D01*
X0072685Y0246800D01*
X0070185Y0249300D01*
X0067685Y0249300D01*
X0064260Y0253375D02*
X0062685Y0251800D01*
X0062685Y0241800D01*
X0067685Y0236800D01*
X0067685Y0239300D01*
X0070736Y0242351D01*
X0077882Y0242351D01*
X0077882Y0236839D02*
X0077921Y0236800D01*
X0087685Y0236800D01*
X0092685Y0241800D01*
X0105185Y0241800D01*
X0105185Y0234300D02*
X0092685Y0234300D01*
X0090185Y0231800D01*
X0078354Y0231800D01*
X0077882Y0231328D01*
X0078866Y0226800D02*
X0077882Y0225816D01*
X0078866Y0226800D02*
X0105185Y0226800D01*
X0087685Y0214300D02*
X0083886Y0214300D01*
X0077882Y0220304D01*
X0072685Y0214300D02*
X0072685Y0211977D01*
X0071976Y0211269D01*
X0072685Y0210560D01*
X0072685Y0191800D01*
X0063935Y0183050D01*
X0063935Y0065550D01*
X0045185Y0046800D01*
X0042685Y0046800D01*
X0042685Y0076800D02*
X0035185Y0076800D01*
X0015185Y0096800D01*
X0015185Y0241800D01*
X0020185Y0246800D01*
X0026425Y0246800D01*
X0027488Y0247863D01*
X0027488Y0236839D02*
X0027488Y0231328D01*
X0027488Y0225816D01*
X0021701Y0225816D01*
X0020185Y0224300D01*
X0020185Y0179300D01*
X0032685Y0166800D01*
X0042685Y0166800D01*
X0047685Y0186800D02*
X0032685Y0186800D01*
X0027685Y0194300D01*
X0027685Y0220107D01*
X0027488Y0220304D01*
X0039339Y0199300D02*
X0039732Y0198906D01*
X0044732Y0191800D01*
X0046031Y0199300D02*
X0046031Y0200146D01*
X0050185Y0204300D01*
X0050185Y0211013D01*
X0049929Y0211269D01*
X0055441Y0211269D02*
X0055441Y0200698D01*
X0056839Y0199300D01*
X0057232Y0191800D02*
X0050638Y0191800D01*
X0050638Y0189753D01*
X0047685Y0186800D01*
X0057232Y0189753D02*
X0063935Y0183050D01*
X0063138Y0191800D02*
X0063138Y0198906D01*
X0063531Y0199300D01*
X0057232Y0191800D02*
X0057232Y0189753D01*
X0064260Y0253375D02*
X0077882Y0253375D01*
X0077882Y0258887D01*
D20*
X0042685Y0066800D02*
X0035185Y0066800D01*
X0022685Y0054300D01*
X0022685Y0023887D01*
X0032685Y0016800D02*
X0025992Y0010107D01*
X0022685Y0010107D01*
X0032685Y0016800D02*
X0032685Y0041800D01*
X0037685Y0046800D01*
X0042685Y0046800D01*
D21*
X0072685Y0214300D02*
X0067685Y0220550D01*
X0067685Y0236800D01*
D22*
X0067685Y0249300D03*
X0087685Y0214300D03*
X0105185Y0226800D03*
X0105185Y0234300D03*
X0105185Y0241800D03*
M02*
