G75*
%MOIN*%
%OFA0B0*%
%FSLAX24Y24*%
%IPPOS*%
%LPD*%
%AMOC8*
5,1,8,0,0,1.08239X$1,22.5*
%
%ADD10C,0.0060*%
%ADD11C,0.0600*%
%ADD12C,0.0860*%
%ADD13C,0.0160*%
%ADD14C,0.0240*%
%ADD15C,0.0396*%
D10*
X001599Y014036D02*
X002239Y014036D01*
X002239Y014356D01*
X002132Y014463D01*
X001919Y014463D01*
X001812Y014356D01*
X001812Y014036D01*
X001812Y014249D02*
X001599Y014463D01*
X001705Y014680D02*
X001599Y014787D01*
X001599Y015107D01*
X001492Y015107D02*
X001385Y015001D01*
X001385Y014894D01*
X001492Y015107D02*
X002026Y015107D01*
X001919Y015325D02*
X002026Y015432D01*
X002026Y015752D01*
X002239Y015969D02*
X001599Y015969D01*
X001599Y016396D01*
X001705Y016614D02*
X001599Y016721D01*
X001599Y016934D01*
X001705Y017041D01*
X001919Y017041D01*
X002026Y016934D01*
X002026Y016721D01*
X001919Y016614D01*
X001705Y016614D01*
X001705Y017259D02*
X001599Y017365D01*
X001599Y017686D01*
X001705Y017259D02*
X001919Y017259D01*
X002026Y017365D01*
X002026Y017686D01*
X001919Y018548D02*
X001919Y018868D01*
X001812Y018975D01*
X001705Y018975D01*
X001599Y018868D01*
X001599Y018548D01*
X002239Y018548D01*
X002239Y018868D01*
X002132Y018975D01*
X002026Y018975D01*
X001919Y018868D01*
X002026Y019192D02*
X002026Y019299D01*
X001599Y019299D01*
X001599Y019192D02*
X001599Y019406D01*
X001705Y019622D02*
X001599Y019729D01*
X001599Y019942D01*
X001705Y020049D01*
X001919Y020049D01*
X002026Y019942D01*
X002026Y019729D01*
X001919Y019622D01*
X001705Y019622D01*
X001599Y020266D02*
X002026Y020266D01*
X002026Y020587D01*
X001919Y020693D01*
X001599Y020693D01*
X001599Y020911D02*
X001599Y021125D01*
X001599Y021018D02*
X002026Y021018D01*
X002026Y020911D01*
X002239Y021018D02*
X002346Y021018D01*
X002239Y021341D02*
X001599Y021341D01*
X001812Y021341D02*
X001599Y021661D01*
X001812Y021341D02*
X002026Y021661D01*
X002026Y022522D02*
X001599Y022736D01*
X002026Y022949D01*
X001919Y023167D02*
X002026Y023274D01*
X002026Y023487D01*
X001919Y023594D01*
X001812Y023594D01*
X001812Y023167D01*
X001705Y023167D02*
X001919Y023167D01*
X001705Y023167D02*
X001599Y023274D01*
X001599Y023487D01*
X001599Y023811D02*
X002026Y023811D01*
X001812Y023811D02*
X002026Y024025D01*
X002026Y024132D01*
X002026Y024349D02*
X002239Y024562D01*
X001599Y024562D01*
X001599Y024349D02*
X001599Y024776D01*
X001599Y024993D02*
X001599Y025100D01*
X001705Y025100D01*
X001705Y024993D01*
X001599Y024993D01*
X001705Y025315D02*
X001599Y025422D01*
X001599Y025636D01*
X001705Y025742D01*
X002132Y025742D01*
X001705Y025315D01*
X002132Y025315D01*
X002239Y025422D01*
X002239Y025636D01*
X002132Y025742D01*
X002239Y019299D02*
X002346Y019299D01*
X001705Y015752D02*
X001599Y015645D01*
X001599Y015325D01*
X001812Y015645D02*
X001705Y015752D01*
X001812Y015645D02*
X001812Y015432D01*
X001919Y015325D01*
X002026Y014680D02*
X001705Y014680D01*
D11*
X003969Y014680D02*
X004569Y014680D01*
X004569Y013680D02*
X003969Y013680D01*
X003969Y012680D02*
X004569Y012680D01*
X004569Y011680D02*
X003969Y011680D01*
X003969Y010680D02*
X004569Y010680D01*
X004569Y009680D02*
X003969Y009680D01*
X003969Y008680D02*
X004569Y008680D01*
X004569Y007680D02*
X003969Y007680D01*
X003969Y006680D02*
X004569Y006680D01*
X004569Y005680D02*
X003969Y005680D01*
X003969Y004680D02*
X004569Y004680D01*
X004569Y003680D02*
X003969Y003680D01*
X003969Y015680D02*
X004569Y015680D01*
X004569Y016680D02*
X003969Y016680D01*
X003969Y017680D02*
X004569Y017680D01*
X009969Y017680D02*
X010569Y017680D01*
X010569Y016680D02*
X009969Y016680D01*
X009969Y015680D02*
X010569Y015680D01*
X010569Y014680D02*
X009969Y014680D01*
X009969Y013680D02*
X010569Y013680D01*
X010569Y012680D02*
X009969Y012680D01*
X009969Y011680D02*
X010569Y011680D01*
X010569Y010680D02*
X009969Y010680D01*
X009969Y009680D02*
X010569Y009680D01*
X010569Y008680D02*
X009969Y008680D01*
X009969Y007680D02*
X010569Y007680D01*
X010569Y006680D02*
X009969Y006680D01*
X009969Y005680D02*
X010569Y005680D01*
X010569Y004680D02*
X009969Y004680D01*
X009969Y003680D02*
X010569Y003680D01*
D12*
X002269Y002389D03*
X002269Y001011D03*
D13*
X001219Y000380D02*
X001219Y016004D01*
X001219Y016003D01*
X001238Y015991D01*
X001259Y015981D01*
X001280Y015974D01*
X001302Y015969D01*
X001324Y015966D01*
X002513Y015966D01*
X002535Y015969D01*
X002557Y015974D01*
X002578Y015981D01*
X002599Y015991D01*
X002618Y016003D01*
X002635Y016017D01*
X002651Y016033D01*
X002665Y016050D01*
X002677Y016069D01*
X002687Y016090D01*
X002694Y016111D01*
X002699Y016133D01*
X002702Y016155D01*
X002702Y026175D01*
X002699Y026197D01*
X002694Y026219D01*
X002692Y026226D01*
X011089Y026226D01*
X011089Y000380D01*
X001219Y000380D01*
X001219Y000509D02*
X001922Y000509D01*
X001949Y000489D02*
X002034Y000445D01*
X002126Y000416D01*
X002220Y000401D01*
X002250Y000401D01*
X002250Y000992D01*
X002287Y000992D01*
X002287Y000401D01*
X002317Y000401D01*
X002411Y000416D01*
X002503Y000445D01*
X002588Y000489D01*
X002666Y000545D01*
X002734Y000613D01*
X002790Y000691D01*
X002834Y000777D01*
X002863Y000868D01*
X002879Y000963D01*
X002879Y000992D01*
X002287Y000992D01*
X002287Y001029D01*
X002879Y001029D01*
X002879Y001059D01*
X002863Y001154D01*
X002834Y001245D01*
X002790Y001330D01*
X002734Y001408D01*
X002666Y001476D01*
X002588Y001532D01*
X002503Y001576D01*
X002411Y001606D01*
X002317Y001621D01*
X002287Y001621D01*
X002287Y001029D01*
X002250Y001029D01*
X002250Y000992D01*
X001659Y000992D01*
X001659Y000963D01*
X001674Y000868D01*
X001703Y000777D01*
X001747Y000691D01*
X001803Y000613D01*
X001871Y000545D01*
X001949Y000489D01*
X001764Y000667D02*
X001219Y000667D01*
X001219Y000826D02*
X001687Y000826D01*
X001659Y000984D02*
X001219Y000984D01*
X001219Y001143D02*
X001672Y001143D01*
X001674Y001154D02*
X001659Y001059D01*
X001659Y001029D01*
X002250Y001029D01*
X002250Y001621D01*
X002220Y001621D01*
X002126Y001606D01*
X002034Y001576D01*
X001949Y001532D01*
X001871Y001476D01*
X001803Y001408D01*
X001747Y001330D01*
X001703Y001245D01*
X001674Y001154D01*
X001732Y001301D02*
X001219Y001301D01*
X001219Y001460D02*
X001855Y001460D01*
X001912Y001855D02*
X001734Y002032D01*
X001639Y002263D01*
X001639Y002514D01*
X001734Y002746D01*
X001912Y002923D01*
X002143Y003019D01*
X002394Y003019D01*
X002625Y002923D01*
X002803Y002746D01*
X002899Y002514D01*
X002899Y002263D01*
X002803Y002032D01*
X002625Y001855D01*
X002394Y001759D01*
X002143Y001759D01*
X001912Y001855D01*
X001831Y001935D02*
X001219Y001935D01*
X001219Y001777D02*
X002100Y001777D01*
X002203Y001618D02*
X001219Y001618D01*
X001219Y002094D02*
X001709Y002094D01*
X001643Y002252D02*
X001219Y002252D01*
X001219Y002411D02*
X001639Y002411D01*
X001661Y002569D02*
X001219Y002569D01*
X001219Y002728D02*
X001727Y002728D01*
X001875Y002886D02*
X001219Y002886D01*
X001219Y003045D02*
X011089Y003045D01*
X011089Y003203D02*
X010724Y003203D01*
X010668Y003180D02*
X010852Y003256D01*
X010992Y003397D01*
X011069Y003581D01*
X011069Y003779D01*
X010992Y003963D01*
X010852Y004104D01*
X010668Y004180D01*
X009869Y004180D01*
X009685Y004104D01*
X009545Y003963D01*
X009469Y003779D01*
X009469Y003581D01*
X009545Y003397D01*
X009685Y003256D01*
X009869Y003180D01*
X010668Y003180D01*
X010957Y003362D02*
X011089Y003362D01*
X011089Y003520D02*
X011043Y003520D01*
X011069Y003679D02*
X011089Y003679D01*
X011089Y003837D02*
X011045Y003837D01*
X011089Y003996D02*
X010960Y003996D01*
X011089Y004154D02*
X010731Y004154D01*
X010668Y004180D02*
X010852Y004256D01*
X010992Y004397D01*
X011069Y004581D01*
X011069Y004779D01*
X010992Y004963D01*
X010852Y005104D01*
X010668Y005180D01*
X009869Y005180D01*
X009685Y005104D01*
X009545Y004963D01*
X009469Y004779D01*
X009469Y004581D01*
X009545Y004397D01*
X009685Y004256D01*
X009869Y004180D01*
X010668Y004180D01*
X010908Y004313D02*
X011089Y004313D01*
X011089Y004471D02*
X011023Y004471D01*
X011069Y004630D02*
X011089Y004630D01*
X011089Y004788D02*
X011065Y004788D01*
X011089Y004947D02*
X010999Y004947D01*
X011089Y005105D02*
X010849Y005105D01*
X010852Y005256D02*
X010668Y005180D01*
X009869Y005180D01*
X009685Y005256D01*
X009545Y005397D01*
X009469Y005581D01*
X009469Y005779D01*
X009545Y005963D01*
X009685Y006104D01*
X009869Y006180D01*
X010668Y006180D01*
X010852Y006104D01*
X010992Y005963D01*
X011069Y005779D01*
X011069Y005581D01*
X010992Y005397D01*
X010852Y005256D01*
X010859Y005264D02*
X011089Y005264D01*
X011089Y005422D02*
X011003Y005422D01*
X011068Y005581D02*
X011089Y005581D01*
X011089Y005739D02*
X011069Y005739D01*
X011089Y005898D02*
X011020Y005898D01*
X011089Y006056D02*
X010900Y006056D01*
X010852Y006256D02*
X010992Y006397D01*
X011069Y006581D01*
X011069Y006779D01*
X010992Y006963D01*
X010852Y007104D01*
X010668Y007180D01*
X009869Y007180D01*
X009685Y007104D01*
X009545Y006963D01*
X009469Y006779D01*
X009469Y006581D01*
X009545Y006397D01*
X009685Y006256D01*
X009869Y006180D01*
X010668Y006180D01*
X010852Y006256D01*
X010751Y006215D02*
X011089Y006215D01*
X011089Y006373D02*
X010969Y006373D01*
X011048Y006532D02*
X011089Y006532D01*
X011089Y006690D02*
X011069Y006690D01*
X011089Y006849D02*
X011040Y006849D01*
X011089Y007007D02*
X010949Y007007D01*
X011089Y007166D02*
X010703Y007166D01*
X010668Y007180D02*
X010852Y007256D01*
X010992Y007397D01*
X011069Y007581D01*
X011069Y007779D01*
X010992Y007963D01*
X010852Y008104D01*
X010668Y008180D01*
X009869Y008180D01*
X009685Y008104D01*
X009545Y007963D01*
X009469Y007779D01*
X009469Y007581D01*
X009545Y007397D01*
X009685Y007256D01*
X009869Y007180D01*
X010668Y007180D01*
X010920Y007324D02*
X011089Y007324D01*
X011089Y007483D02*
X011028Y007483D01*
X011069Y007641D02*
X011089Y007641D01*
X011089Y007800D02*
X011060Y007800D01*
X011089Y007958D02*
X010995Y007958D01*
X011089Y008117D02*
X010821Y008117D01*
X010852Y008256D02*
X010992Y008397D01*
X011069Y008581D01*
X011069Y008779D01*
X010992Y008963D01*
X010852Y009104D01*
X010668Y009180D01*
X009869Y009180D01*
X009685Y009104D01*
X009545Y008963D01*
X009469Y008779D01*
X009469Y008581D01*
X009545Y008397D01*
X009685Y008256D01*
X009869Y008180D01*
X010668Y008180D01*
X010852Y008256D01*
X010871Y008275D02*
X011089Y008275D01*
X011089Y008434D02*
X011008Y008434D01*
X011069Y008592D02*
X011089Y008592D01*
X011089Y008751D02*
X011069Y008751D01*
X011089Y008909D02*
X011015Y008909D01*
X011089Y009068D02*
X010888Y009068D01*
X010852Y009256D02*
X010992Y009397D01*
X011069Y009581D01*
X011069Y009779D01*
X010992Y009963D01*
X010852Y010104D01*
X010668Y010180D01*
X009869Y010180D01*
X009685Y010104D01*
X009545Y009963D01*
X009469Y009779D01*
X009469Y009581D01*
X009545Y009397D01*
X009685Y009256D01*
X009869Y009180D01*
X010668Y009180D01*
X010852Y009256D01*
X010779Y009226D02*
X011089Y009226D01*
X011089Y009385D02*
X010980Y009385D01*
X011053Y009543D02*
X011089Y009543D01*
X011089Y009702D02*
X011069Y009702D01*
X011089Y009860D02*
X011035Y009860D01*
X011089Y010019D02*
X010937Y010019D01*
X011089Y010177D02*
X010675Y010177D01*
X010668Y010180D02*
X010852Y010256D01*
X010992Y010397D01*
X011069Y010581D01*
X011069Y010779D01*
X010992Y010963D01*
X010852Y011104D01*
X010668Y011180D01*
X010852Y011256D01*
X010992Y011397D01*
X011069Y011581D01*
X011069Y011779D01*
X010992Y011963D01*
X010852Y012104D01*
X010668Y012180D01*
X010852Y012256D01*
X010992Y012397D01*
X011069Y012581D01*
X011069Y012779D01*
X010992Y012963D01*
X010852Y013104D01*
X010668Y013180D01*
X010852Y013256D01*
X010992Y013397D01*
X011069Y013581D01*
X011069Y013779D01*
X010992Y013963D01*
X010852Y014104D01*
X010668Y014180D01*
X010852Y014256D01*
X010992Y014397D01*
X011069Y014581D01*
X011069Y014779D01*
X010992Y014963D01*
X010852Y015104D01*
X010668Y015180D01*
X010852Y015256D01*
X010992Y015397D01*
X011069Y015581D01*
X011069Y015779D01*
X010992Y015963D01*
X010852Y016104D01*
X010668Y016180D01*
X010852Y016256D01*
X010992Y016397D01*
X011069Y016581D01*
X011069Y016779D01*
X010992Y016963D01*
X010852Y017104D01*
X010668Y017180D01*
X010852Y017256D01*
X010992Y017397D01*
X011069Y017581D01*
X011069Y017779D01*
X010992Y017963D01*
X010852Y018104D01*
X010668Y018180D01*
X009971Y018180D01*
X010700Y018909D01*
X010790Y018999D01*
X010839Y019116D01*
X010839Y022437D01*
X010856Y022454D01*
X010917Y022601D01*
X010917Y022759D01*
X010856Y022906D01*
X010744Y023018D01*
X010653Y023055D01*
X010744Y023092D01*
X010856Y023204D01*
X010917Y023351D01*
X010917Y023509D01*
X010856Y023656D01*
X010744Y023768D01*
X010653Y023805D01*
X010744Y023842D01*
X010856Y023954D01*
X010917Y024101D01*
X010917Y024259D01*
X010856Y024406D01*
X010744Y024518D01*
X010598Y024578D01*
X010439Y024578D01*
X010293Y024518D01*
X010181Y024406D01*
X010120Y024259D01*
X010120Y024234D01*
X009337Y023451D01*
X009247Y023361D01*
X009199Y023244D01*
X009199Y021453D01*
X009167Y021484D01*
X009167Y021509D01*
X009106Y021656D01*
X008994Y021768D01*
X008848Y021828D01*
X008689Y021828D01*
X008543Y021768D01*
X008431Y021656D01*
X008370Y021509D01*
X008370Y021351D01*
X008431Y021204D01*
X008543Y021092D01*
X008689Y021032D01*
X008699Y021032D01*
X008699Y020063D01*
X007589Y018953D01*
X007589Y022994D01*
X007540Y023111D01*
X006471Y024180D01*
X006823Y024532D01*
X006848Y024532D01*
X006994Y024592D01*
X007106Y024704D01*
X007167Y024851D01*
X007167Y025009D01*
X007106Y025156D01*
X006994Y025268D01*
X006848Y025328D01*
X006689Y025328D01*
X006543Y025268D01*
X006431Y025156D01*
X006370Y025009D01*
X006370Y024984D01*
X005837Y024451D01*
X005747Y024361D01*
X005699Y024244D01*
X005699Y024116D01*
X005747Y023999D01*
X006949Y022797D01*
X006949Y013313D01*
X006636Y013000D01*
X004956Y013000D01*
X004852Y013104D01*
X004668Y013180D01*
X004852Y013256D01*
X004992Y013397D01*
X005069Y013581D01*
X005069Y013779D01*
X004992Y013963D01*
X004852Y014104D01*
X004668Y014180D01*
X003869Y014180D01*
X003685Y014104D01*
X003545Y013963D01*
X003469Y013779D01*
X003469Y013581D01*
X003545Y013397D01*
X003685Y013256D01*
X003869Y013180D01*
X004668Y013180D01*
X003869Y013180D01*
X003685Y013104D01*
X003545Y012963D01*
X003469Y012779D01*
X003469Y012581D01*
X003545Y012397D01*
X003685Y012256D01*
X003869Y012180D01*
X003685Y012104D01*
X003545Y011963D01*
X003469Y011779D01*
X003469Y011581D01*
X003545Y011397D01*
X003685Y011256D01*
X003869Y011180D01*
X003685Y011104D01*
X003545Y010963D01*
X003469Y010779D01*
X003469Y010581D01*
X003545Y010397D01*
X003685Y010256D01*
X003869Y010180D01*
X003685Y010104D01*
X003545Y009963D01*
X003469Y009779D01*
X003469Y009581D01*
X003545Y009397D01*
X003685Y009256D01*
X003869Y009180D01*
X003685Y009104D01*
X003545Y008963D01*
X003469Y008779D01*
X003469Y008581D01*
X003545Y008397D01*
X003685Y008256D01*
X003869Y008180D01*
X003685Y008104D01*
X003545Y007963D01*
X003469Y007779D01*
X003469Y007581D01*
X003545Y007397D01*
X003685Y007256D01*
X003869Y007180D01*
X003685Y007104D01*
X003545Y006963D01*
X003469Y006779D01*
X003469Y006581D01*
X003545Y006397D01*
X003685Y006256D01*
X003869Y006180D01*
X003685Y006104D01*
X003545Y005963D01*
X003469Y005779D01*
X003469Y005581D01*
X003545Y005397D01*
X003685Y005256D01*
X003869Y005180D01*
X004668Y005180D01*
X004852Y005256D01*
X004992Y005397D01*
X005069Y005581D01*
X005069Y005779D01*
X004992Y005963D01*
X004852Y006104D01*
X004668Y006180D01*
X003869Y006180D01*
X004668Y006180D01*
X004852Y006256D01*
X004992Y006397D01*
X005069Y006581D01*
X005069Y006779D01*
X004992Y006963D01*
X004852Y007104D01*
X004668Y007180D01*
X003869Y007180D01*
X004668Y007180D01*
X004852Y007256D01*
X004992Y007397D01*
X005069Y007581D01*
X005069Y007779D01*
X004992Y007963D01*
X004852Y008104D01*
X004668Y008180D01*
X003869Y008180D01*
X004668Y008180D01*
X004852Y008256D01*
X004956Y008360D01*
X007082Y008360D01*
X007200Y008409D01*
X009450Y010659D01*
X009469Y010677D01*
X009469Y010581D01*
X009545Y010397D01*
X009685Y010256D01*
X009869Y010180D01*
X010668Y010180D01*
X010931Y010336D02*
X011089Y010336D01*
X011089Y010494D02*
X011033Y010494D01*
X011069Y010653D02*
X011089Y010653D01*
X011089Y010811D02*
X011055Y010811D01*
X011089Y010970D02*
X010986Y010970D01*
X011089Y011128D02*
X010793Y011128D01*
X010668Y011180D02*
X009869Y011180D01*
X010668Y011180D01*
X010882Y011287D02*
X011089Y011287D01*
X011089Y011445D02*
X011012Y011445D01*
X011069Y011604D02*
X011089Y011604D01*
X011089Y011762D02*
X011069Y011762D01*
X011089Y011921D02*
X011010Y011921D01*
X011089Y012079D02*
X010877Y012079D01*
X010807Y012238D02*
X011089Y012238D01*
X011089Y012396D02*
X010992Y012396D01*
X011058Y012555D02*
X011089Y012555D01*
X011089Y012713D02*
X011069Y012713D01*
X011089Y012872D02*
X011030Y012872D01*
X011089Y013030D02*
X010926Y013030D01*
X011089Y013189D02*
X010689Y013189D01*
X010668Y013180D02*
X009869Y013180D01*
X009685Y013256D01*
X009589Y013353D01*
X009589Y013007D01*
X009685Y013104D01*
X009869Y013180D01*
X010668Y013180D01*
X010943Y013347D02*
X011089Y013347D01*
X011089Y013506D02*
X011037Y013506D01*
X011069Y013664D02*
X011089Y013664D01*
X011089Y013823D02*
X011051Y013823D01*
X011089Y013981D02*
X010975Y013981D01*
X011089Y014140D02*
X010766Y014140D01*
X010668Y014180D02*
X009869Y014180D01*
X010668Y014180D01*
X010894Y014298D02*
X011089Y014298D01*
X011089Y014457D02*
X011017Y014457D01*
X011069Y014615D02*
X011089Y014615D01*
X011089Y014774D02*
X011069Y014774D01*
X011089Y014932D02*
X011005Y014932D01*
X011089Y015091D02*
X010865Y015091D01*
X010835Y015249D02*
X011089Y015249D01*
X011089Y015408D02*
X010997Y015408D01*
X011062Y015566D02*
X011089Y015566D01*
X011089Y015725D02*
X011069Y015725D01*
X011089Y015883D02*
X011026Y015883D01*
X011089Y016042D02*
X010914Y016042D01*
X011089Y016200D02*
X010716Y016200D01*
X010668Y016180D02*
X009869Y016180D01*
X009685Y016256D01*
X009589Y016353D01*
X009589Y016007D01*
X009685Y016104D01*
X009869Y016180D01*
X010668Y016180D01*
X010954Y016359D02*
X011089Y016359D01*
X011089Y016517D02*
X011042Y016517D01*
X011069Y016676D02*
X011089Y016676D01*
X011089Y016834D02*
X011046Y016834D01*
X011089Y016993D02*
X010963Y016993D01*
X011089Y017151D02*
X010738Y017151D01*
X010668Y017180D02*
X009869Y017180D01*
X009685Y017256D01*
X009589Y017353D01*
X009589Y017007D01*
X009685Y017104D01*
X009869Y017180D01*
X010668Y017180D01*
X010905Y017310D02*
X011089Y017310D01*
X011089Y017468D02*
X011022Y017468D01*
X011069Y017627D02*
X011089Y017627D01*
X011089Y017785D02*
X011066Y017785D01*
X011089Y017944D02*
X011001Y017944D01*
X011089Y018102D02*
X010854Y018102D01*
X011089Y018261D02*
X010052Y018261D01*
X010210Y018419D02*
X011089Y018419D01*
X011089Y018578D02*
X010369Y018578D01*
X010527Y018736D02*
X011089Y018736D01*
X011089Y018895D02*
X010686Y018895D01*
X010812Y019053D02*
X011089Y019053D01*
X011089Y019212D02*
X010839Y019212D01*
X010839Y019370D02*
X011089Y019370D01*
X011089Y019529D02*
X010839Y019529D01*
X010839Y019687D02*
X011089Y019687D01*
X011089Y019846D02*
X010839Y019846D01*
X010839Y020004D02*
X011089Y020004D01*
X011089Y020163D02*
X010839Y020163D01*
X010839Y020321D02*
X011089Y020321D01*
X011089Y020480D02*
X010839Y020480D01*
X010839Y020638D02*
X011089Y020638D01*
X011089Y020797D02*
X010839Y020797D01*
X010839Y020955D02*
X011089Y020955D01*
X011089Y021114D02*
X010839Y021114D01*
X010839Y021272D02*
X011089Y021272D01*
X011089Y021431D02*
X010839Y021431D01*
X010839Y021589D02*
X011089Y021589D01*
X011089Y021748D02*
X010839Y021748D01*
X010839Y021906D02*
X011089Y021906D01*
X011089Y022065D02*
X010839Y022065D01*
X010839Y022223D02*
X011089Y022223D01*
X011089Y022382D02*
X010839Y022382D01*
X010891Y022540D02*
X011089Y022540D01*
X011089Y022699D02*
X010917Y022699D01*
X010876Y022857D02*
X011089Y022857D01*
X011089Y023016D02*
X010746Y023016D01*
X010826Y023174D02*
X011089Y023174D01*
X011089Y023333D02*
X010909Y023333D01*
X010917Y023491D02*
X011089Y023491D01*
X011089Y023650D02*
X010858Y023650D01*
X010661Y023808D02*
X011089Y023808D01*
X011089Y023967D02*
X010861Y023967D01*
X010917Y024125D02*
X011089Y024125D01*
X011089Y024284D02*
X010907Y024284D01*
X010819Y024442D02*
X011089Y024442D01*
X011089Y024601D02*
X007002Y024601D01*
X007129Y024759D02*
X011089Y024759D01*
X011089Y024918D02*
X007167Y024918D01*
X007139Y025076D02*
X011089Y025076D01*
X011089Y025235D02*
X007027Y025235D01*
X006733Y024442D02*
X010218Y024442D01*
X010130Y024284D02*
X006575Y024284D01*
X006526Y024125D02*
X010011Y024125D01*
X009852Y023967D02*
X006685Y023967D01*
X006843Y023808D02*
X009694Y023808D01*
X009535Y023650D02*
X007002Y023650D01*
X007160Y023491D02*
X009377Y023491D01*
X009235Y023333D02*
X007319Y023333D01*
X007477Y023174D02*
X009199Y023174D01*
X009199Y023016D02*
X007579Y023016D01*
X007589Y022857D02*
X009199Y022857D01*
X009199Y022699D02*
X007589Y022699D01*
X007589Y022540D02*
X009199Y022540D01*
X009199Y022382D02*
X007589Y022382D01*
X007589Y022223D02*
X009199Y022223D01*
X009199Y022065D02*
X007589Y022065D01*
X007589Y021906D02*
X009199Y021906D01*
X009199Y021748D02*
X009014Y021748D01*
X009134Y021589D02*
X009199Y021589D01*
X008699Y020955D02*
X007589Y020955D01*
X007589Y020797D02*
X008699Y020797D01*
X008699Y020638D02*
X007589Y020638D01*
X007589Y020480D02*
X008699Y020480D01*
X008699Y020321D02*
X007589Y020321D01*
X007589Y020163D02*
X008699Y020163D01*
X008640Y020004D02*
X007589Y020004D01*
X007589Y019846D02*
X008481Y019846D01*
X008323Y019687D02*
X007589Y019687D01*
X007589Y019529D02*
X008164Y019529D01*
X008006Y019370D02*
X007589Y019370D01*
X007589Y019212D02*
X007847Y019212D01*
X007689Y019053D02*
X007589Y019053D01*
X006949Y019053D02*
X002702Y019053D01*
X002702Y018895D02*
X006949Y018895D01*
X006949Y018736D02*
X002702Y018736D01*
X002702Y018578D02*
X006949Y018578D01*
X006949Y018419D02*
X002702Y018419D01*
X002702Y018261D02*
X006949Y018261D01*
X006949Y018102D02*
X004854Y018102D01*
X004852Y018104D02*
X004668Y018180D01*
X003869Y018180D01*
X003685Y018104D01*
X003545Y017963D01*
X003469Y017779D01*
X003469Y017581D01*
X003545Y017397D01*
X003685Y017256D01*
X003869Y017180D01*
X003685Y017104D01*
X003545Y016963D01*
X003469Y016779D01*
X003469Y016581D01*
X003545Y016397D01*
X003685Y016256D01*
X003869Y016180D01*
X003685Y016104D01*
X003545Y015963D01*
X003469Y015779D01*
X003469Y015581D01*
X003545Y015397D01*
X003685Y015256D01*
X003869Y015180D01*
X003685Y015104D01*
X003545Y014963D01*
X003469Y014779D01*
X003469Y014581D01*
X003545Y014397D01*
X003685Y014256D01*
X003869Y014180D01*
X004668Y014180D01*
X004852Y014256D01*
X004992Y014397D01*
X005069Y014581D01*
X005069Y014779D01*
X004992Y014963D01*
X004852Y015104D01*
X004668Y015180D01*
X003869Y015180D01*
X004668Y015180D01*
X004852Y015256D01*
X004992Y015397D01*
X005069Y015581D01*
X005069Y015779D01*
X004992Y015963D01*
X004852Y016104D01*
X004668Y016180D01*
X003869Y016180D01*
X004668Y016180D01*
X004852Y016256D01*
X004992Y016397D01*
X005069Y016581D01*
X005069Y016779D01*
X004992Y016963D01*
X004852Y017104D01*
X004668Y017180D01*
X003869Y017180D01*
X004668Y017180D01*
X004852Y017256D01*
X004992Y017397D01*
X005069Y017581D01*
X005069Y017779D01*
X004992Y017963D01*
X004852Y018104D01*
X005001Y017944D02*
X006949Y017944D01*
X006949Y017785D02*
X005066Y017785D01*
X005069Y017627D02*
X006949Y017627D01*
X006949Y017468D02*
X005022Y017468D01*
X004905Y017310D02*
X006949Y017310D01*
X006949Y017151D02*
X004738Y017151D01*
X004963Y016993D02*
X006949Y016993D01*
X006949Y016834D02*
X005046Y016834D01*
X005069Y016676D02*
X006949Y016676D01*
X006949Y016517D02*
X005042Y016517D01*
X004954Y016359D02*
X006949Y016359D01*
X006949Y016200D02*
X004716Y016200D01*
X004914Y016042D02*
X006949Y016042D01*
X006949Y015883D02*
X005026Y015883D01*
X005069Y015725D02*
X006949Y015725D01*
X006949Y015566D02*
X005062Y015566D01*
X004997Y015408D02*
X006949Y015408D01*
X006949Y015249D02*
X004835Y015249D01*
X004865Y015091D02*
X006949Y015091D01*
X006949Y014932D02*
X005005Y014932D01*
X005069Y014774D02*
X006949Y014774D01*
X006949Y014615D02*
X005069Y014615D01*
X005017Y014457D02*
X006949Y014457D01*
X006949Y014298D02*
X004894Y014298D01*
X004766Y014140D02*
X006949Y014140D01*
X006949Y013981D02*
X004975Y013981D01*
X005051Y013823D02*
X006949Y013823D01*
X006949Y013664D02*
X005069Y013664D01*
X005037Y013506D02*
X006949Y013506D01*
X006949Y013347D02*
X004943Y013347D01*
X004926Y013030D02*
X006666Y013030D01*
X006824Y013189D02*
X004689Y013189D01*
X004956Y012360D02*
X006832Y012360D01*
X006950Y012409D01*
X007449Y012907D01*
X007449Y012813D01*
X006636Y012000D01*
X004956Y012000D01*
X004852Y012104D01*
X004668Y012180D01*
X003869Y012180D01*
X004668Y012180D01*
X004852Y012256D01*
X004956Y012360D01*
X004807Y012238D02*
X006873Y012238D01*
X006919Y012396D02*
X007032Y012396D01*
X007096Y012555D02*
X007190Y012555D01*
X007254Y012713D02*
X007349Y012713D01*
X007413Y012872D02*
X007449Y012872D01*
X007779Y012238D02*
X007949Y012238D01*
X007937Y012396D02*
X007949Y012396D01*
X007949Y012407D02*
X007949Y011813D01*
X007136Y011000D01*
X004956Y011000D01*
X004852Y011104D01*
X004668Y011180D01*
X003869Y011180D01*
X004668Y011180D01*
X004852Y011256D01*
X004956Y011360D01*
X006832Y011360D01*
X006950Y011409D01*
X007949Y012407D01*
X007949Y012079D02*
X007620Y012079D01*
X007462Y011921D02*
X007949Y011921D01*
X007898Y011762D02*
X007303Y011762D01*
X007145Y011604D02*
X007739Y011604D01*
X007581Y011445D02*
X006986Y011445D01*
X007264Y011128D02*
X004793Y011128D01*
X004882Y011287D02*
X007422Y011287D01*
X007694Y010653D02*
X007788Y010653D01*
X007852Y010811D02*
X007947Y010811D01*
X008011Y010970D02*
X008105Y010970D01*
X008169Y011128D02*
X008264Y011128D01*
X008328Y011287D02*
X008422Y011287D01*
X008449Y011313D02*
X007136Y010000D01*
X004956Y010000D01*
X004852Y010104D01*
X004668Y010180D01*
X003869Y010180D01*
X004668Y010180D01*
X004852Y010256D01*
X004956Y010360D01*
X007332Y010360D01*
X007450Y010409D01*
X008449Y011407D01*
X008449Y011313D01*
X008968Y010177D02*
X009862Y010177D01*
X009606Y010336D02*
X009127Y010336D01*
X009285Y010494D02*
X009504Y010494D01*
X009469Y010653D02*
X009444Y010653D01*
X009589Y011007D02*
X009589Y011353D01*
X009685Y011256D01*
X009869Y011180D01*
X009685Y011104D01*
X009589Y011007D01*
X009589Y011128D02*
X009744Y011128D01*
X009655Y011287D02*
X009589Y011287D01*
X009589Y012007D02*
X009589Y012353D01*
X009685Y012256D01*
X009869Y012180D01*
X010668Y012180D01*
X009869Y012180D01*
X009685Y012104D01*
X009589Y012007D01*
X009589Y012079D02*
X009660Y012079D01*
X009730Y012238D02*
X009589Y012238D01*
X009589Y013030D02*
X009611Y013030D01*
X009589Y013189D02*
X009848Y013189D01*
X009594Y013347D02*
X009589Y013347D01*
X009589Y014007D02*
X009589Y014353D01*
X009685Y014256D01*
X009869Y014180D01*
X009685Y014104D01*
X009589Y014007D01*
X009589Y014140D02*
X009771Y014140D01*
X009643Y014298D02*
X009589Y014298D01*
X009589Y015007D02*
X009589Y015353D01*
X009685Y015256D01*
X009869Y015180D01*
X010668Y015180D01*
X009869Y015180D01*
X009685Y015104D01*
X009589Y015007D01*
X009589Y015091D02*
X009672Y015091D01*
X009702Y015249D02*
X009589Y015249D01*
X009589Y016042D02*
X009623Y016042D01*
X009589Y016200D02*
X009821Y016200D01*
X009799Y017151D02*
X009589Y017151D01*
X009589Y017310D02*
X009632Y017310D01*
X008522Y021114D02*
X007589Y021114D01*
X007589Y021272D02*
X008403Y021272D01*
X008370Y021431D02*
X007589Y021431D01*
X007589Y021589D02*
X008403Y021589D01*
X008523Y021748D02*
X007589Y021748D01*
X006949Y021748D02*
X002702Y021748D01*
X002702Y021906D02*
X006949Y021906D01*
X006949Y022065D02*
X002702Y022065D01*
X002702Y022223D02*
X006949Y022223D01*
X006949Y022382D02*
X002702Y022382D01*
X002702Y022540D02*
X006949Y022540D01*
X006949Y022699D02*
X002702Y022699D01*
X002702Y022857D02*
X006889Y022857D01*
X006730Y023016D02*
X002702Y023016D01*
X002702Y023174D02*
X006572Y023174D01*
X006413Y023333D02*
X002702Y023333D01*
X002702Y023491D02*
X006255Y023491D01*
X006096Y023650D02*
X002702Y023650D01*
X002702Y023808D02*
X005938Y023808D01*
X005779Y023967D02*
X002702Y023967D01*
X002702Y024125D02*
X005699Y024125D01*
X005715Y024284D02*
X002702Y024284D01*
X002702Y024442D02*
X005828Y024442D01*
X005837Y024451D02*
X005837Y024451D01*
X005986Y024601D02*
X002702Y024601D01*
X002702Y024759D02*
X006145Y024759D01*
X006304Y024918D02*
X002702Y024918D01*
X002702Y025076D02*
X006398Y025076D01*
X006510Y025235D02*
X002702Y025235D01*
X002702Y025393D02*
X011089Y025393D01*
X011089Y025552D02*
X002702Y025552D01*
X002702Y025710D02*
X011089Y025710D01*
X011089Y025869D02*
X002702Y025869D01*
X002702Y026027D02*
X011089Y026027D01*
X011089Y026186D02*
X002701Y026186D01*
X002702Y021589D02*
X006949Y021589D01*
X006949Y021431D02*
X002702Y021431D01*
X002702Y021272D02*
X006949Y021272D01*
X006949Y021114D02*
X002702Y021114D01*
X002702Y020955D02*
X006949Y020955D01*
X006949Y020797D02*
X002702Y020797D01*
X002702Y020638D02*
X006949Y020638D01*
X006949Y020480D02*
X002702Y020480D01*
X002702Y020321D02*
X006949Y020321D01*
X006949Y020163D02*
X002702Y020163D01*
X002702Y020004D02*
X006949Y020004D01*
X006949Y019846D02*
X002702Y019846D01*
X002702Y019687D02*
X006949Y019687D01*
X006949Y019529D02*
X002702Y019529D01*
X002702Y019370D02*
X006949Y019370D01*
X006949Y019212D02*
X002702Y019212D01*
X002702Y018102D02*
X003683Y018102D01*
X003536Y017944D02*
X002702Y017944D01*
X002702Y017785D02*
X003471Y017785D01*
X003469Y017627D02*
X002702Y017627D01*
X002702Y017468D02*
X003515Y017468D01*
X003632Y017310D02*
X002702Y017310D01*
X002702Y017151D02*
X003799Y017151D01*
X003574Y016993D02*
X002702Y016993D01*
X002702Y016834D02*
X003491Y016834D01*
X003469Y016676D02*
X002702Y016676D01*
X002702Y016517D02*
X003495Y016517D01*
X003583Y016359D02*
X002702Y016359D01*
X002702Y016200D02*
X003821Y016200D01*
X003623Y016042D02*
X002658Y016042D01*
X002668Y015181D02*
X002369Y015181D01*
X002093Y015067D01*
X001882Y014856D01*
X001767Y014579D01*
X001767Y014281D01*
X001882Y014004D01*
X002093Y013793D01*
X002369Y013679D01*
X002668Y013679D01*
X002944Y013793D01*
X003155Y014004D01*
X003270Y014281D01*
X003270Y014579D01*
X003155Y014856D01*
X002944Y015067D01*
X002668Y015181D01*
X002887Y015091D02*
X003672Y015091D01*
X003702Y015249D02*
X001219Y015249D01*
X001219Y015091D02*
X002150Y015091D01*
X001958Y014932D02*
X001219Y014932D01*
X001219Y014774D02*
X001848Y014774D01*
X001782Y014615D02*
X001219Y014615D01*
X001219Y014457D02*
X001767Y014457D01*
X001767Y014298D02*
X001219Y014298D01*
X001219Y014140D02*
X001826Y014140D01*
X001905Y013981D02*
X001219Y013981D01*
X001219Y013823D02*
X002064Y013823D01*
X001219Y013664D02*
X003469Y013664D01*
X003486Y013823D02*
X002973Y013823D01*
X003132Y013981D02*
X003562Y013981D01*
X003771Y014140D02*
X003211Y014140D01*
X003270Y014298D02*
X003643Y014298D01*
X003520Y014457D02*
X003270Y014457D01*
X003255Y014615D02*
X003469Y014615D01*
X003469Y014774D02*
X003189Y014774D01*
X003079Y014932D02*
X003532Y014932D01*
X003540Y015408D02*
X001219Y015408D01*
X001219Y015566D02*
X003475Y015566D01*
X003469Y015725D02*
X001219Y015725D01*
X001219Y015883D02*
X003511Y015883D01*
X003500Y013506D02*
X001219Y013506D01*
X001219Y013347D02*
X003594Y013347D01*
X003611Y013030D02*
X001219Y013030D01*
X001219Y012872D02*
X003507Y012872D01*
X003469Y012713D02*
X001219Y012713D01*
X001219Y012555D02*
X003479Y012555D01*
X003545Y012396D02*
X001219Y012396D01*
X001219Y012238D02*
X003730Y012238D01*
X003660Y012079D02*
X001219Y012079D01*
X001219Y011921D02*
X003527Y011921D01*
X003469Y011762D02*
X001219Y011762D01*
X001219Y011604D02*
X003469Y011604D01*
X003525Y011445D02*
X001219Y011445D01*
X001219Y011287D02*
X003655Y011287D01*
X003744Y011128D02*
X001219Y011128D01*
X001219Y010970D02*
X003551Y010970D01*
X003482Y010811D02*
X001219Y010811D01*
X001219Y010653D02*
X003469Y010653D01*
X003504Y010494D02*
X001219Y010494D01*
X001219Y010336D02*
X003606Y010336D01*
X003862Y010177D02*
X001219Y010177D01*
X001219Y010019D02*
X003600Y010019D01*
X003502Y009860D02*
X001219Y009860D01*
X001219Y009702D02*
X003469Y009702D01*
X003484Y009543D02*
X001219Y009543D01*
X001219Y009385D02*
X003557Y009385D01*
X003758Y009226D02*
X001219Y009226D01*
X001219Y009068D02*
X003649Y009068D01*
X003522Y008909D02*
X001219Y008909D01*
X001219Y008751D02*
X003469Y008751D01*
X003469Y008592D02*
X001219Y008592D01*
X001219Y008434D02*
X003529Y008434D01*
X003542Y007958D02*
X001219Y007958D01*
X001219Y007800D02*
X003477Y007800D01*
X003469Y007641D02*
X001219Y007641D01*
X001219Y007483D02*
X003509Y007483D01*
X003617Y007324D02*
X001219Y007324D01*
X001219Y007166D02*
X003834Y007166D01*
X003588Y007007D02*
X001219Y007007D01*
X001219Y006849D02*
X003497Y006849D01*
X003469Y006690D02*
X001219Y006690D01*
X001219Y006532D02*
X003489Y006532D01*
X003568Y006373D02*
X001219Y006373D01*
X001219Y006215D02*
X003786Y006215D01*
X003637Y006056D02*
X001219Y006056D01*
X001219Y005898D02*
X003517Y005898D01*
X003469Y005739D02*
X001219Y005739D01*
X001219Y005581D02*
X003469Y005581D01*
X003534Y005422D02*
X002690Y005422D01*
X002668Y005431D02*
X002369Y005431D01*
X002093Y005317D01*
X001882Y005106D01*
X001767Y004829D01*
X001767Y004531D01*
X001882Y004254D01*
X002093Y004043D01*
X002369Y003929D01*
X002668Y003929D01*
X002944Y004043D01*
X003155Y004254D01*
X003270Y004531D01*
X003270Y004829D01*
X003155Y005106D01*
X002944Y005317D01*
X002668Y005431D01*
X002347Y005422D02*
X001219Y005422D01*
X001219Y005264D02*
X002040Y005264D01*
X001881Y005105D02*
X001219Y005105D01*
X001219Y004947D02*
X001816Y004947D01*
X001767Y004788D02*
X001219Y004788D01*
X001219Y004630D02*
X001767Y004630D01*
X001792Y004471D02*
X001219Y004471D01*
X001219Y004313D02*
X001858Y004313D01*
X001982Y004154D02*
X001219Y004154D01*
X001219Y003996D02*
X002208Y003996D01*
X002662Y002886D02*
X011089Y002886D01*
X011089Y002728D02*
X002810Y002728D01*
X002876Y002569D02*
X011089Y002569D01*
X011089Y002411D02*
X002899Y002411D01*
X002894Y002252D02*
X011089Y002252D01*
X011089Y002094D02*
X010380Y002094D01*
X010444Y002067D02*
X010168Y002181D01*
X009869Y002181D01*
X009593Y002067D01*
X009382Y001856D01*
X009267Y001579D01*
X009267Y001281D01*
X009382Y001004D01*
X009593Y000793D01*
X009869Y000679D01*
X010168Y000679D01*
X010444Y000793D01*
X010655Y001004D01*
X010770Y001281D01*
X010770Y001579D01*
X010655Y001856D01*
X010444Y002067D01*
X010576Y001935D02*
X011089Y001935D01*
X011089Y001777D02*
X010688Y001777D01*
X010754Y001618D02*
X011089Y001618D01*
X011089Y001460D02*
X010770Y001460D01*
X010770Y001301D02*
X011089Y001301D01*
X011089Y001143D02*
X010712Y001143D01*
X010635Y000984D02*
X011089Y000984D01*
X011089Y000826D02*
X010476Y000826D01*
X011089Y000667D02*
X002773Y000667D01*
X002850Y000826D02*
X009561Y000826D01*
X009402Y000984D02*
X002879Y000984D01*
X002865Y001143D02*
X009325Y001143D01*
X009267Y001301D02*
X002805Y001301D01*
X002682Y001460D02*
X009267Y001460D01*
X009283Y001618D02*
X002334Y001618D01*
X002287Y001618D02*
X002250Y001618D01*
X002250Y001460D02*
X002287Y001460D01*
X002287Y001301D02*
X002250Y001301D01*
X002250Y001143D02*
X002287Y001143D01*
X002287Y000984D02*
X002250Y000984D01*
X002250Y000826D02*
X002287Y000826D01*
X002287Y000667D02*
X002250Y000667D01*
X002250Y000509D02*
X002287Y000509D01*
X002615Y000509D02*
X011089Y000509D01*
X009813Y003203D02*
X004724Y003203D01*
X004668Y003180D02*
X004852Y003256D01*
X004992Y003397D01*
X005069Y003581D01*
X005069Y003779D01*
X004992Y003963D01*
X004852Y004104D01*
X004668Y004180D01*
X003869Y004180D01*
X003685Y004104D01*
X003545Y003963D01*
X003469Y003779D01*
X003469Y003581D01*
X003545Y003397D01*
X003685Y003256D01*
X003869Y003180D01*
X004668Y003180D01*
X004957Y003362D02*
X009580Y003362D01*
X009494Y003520D02*
X005043Y003520D01*
X005069Y003679D02*
X009469Y003679D01*
X009492Y003837D02*
X005045Y003837D01*
X004960Y003996D02*
X009577Y003996D01*
X009806Y004154D02*
X004731Y004154D01*
X004681Y004212D02*
X004753Y004235D01*
X004820Y004269D01*
X004881Y004314D01*
X004935Y004367D01*
X004979Y004428D01*
X005013Y004496D01*
X005037Y004568D01*
X005049Y004642D01*
X005049Y004660D01*
X004289Y004660D01*
X004289Y004700D01*
X005049Y004700D01*
X005049Y004718D01*
X005037Y004792D01*
X005013Y004864D01*
X004979Y004932D01*
X004935Y004993D01*
X004881Y005046D01*
X004820Y005091D01*
X004753Y005125D01*
X004681Y005148D01*
X004606Y005160D01*
X004289Y005160D01*
X004289Y004700D01*
X004249Y004700D01*
X004249Y005160D01*
X003931Y005160D01*
X003856Y005148D01*
X003784Y005125D01*
X003717Y005091D01*
X003656Y005046D01*
X003602Y004993D01*
X003558Y004932D01*
X003524Y004864D01*
X003500Y004792D01*
X003489Y004718D01*
X003489Y004700D01*
X004248Y004700D01*
X004248Y004660D01*
X003489Y004660D01*
X003489Y004642D01*
X003500Y004568D01*
X003524Y004496D01*
X003558Y004428D01*
X003602Y004367D01*
X003656Y004314D01*
X003717Y004269D01*
X003784Y004235D01*
X003856Y004212D01*
X003931Y004200D01*
X004249Y004200D01*
X004249Y004660D01*
X004289Y004660D01*
X004289Y004200D01*
X004606Y004200D01*
X004681Y004212D01*
X004879Y004313D02*
X009629Y004313D01*
X009514Y004471D02*
X005001Y004471D01*
X005046Y004630D02*
X009469Y004630D01*
X009472Y004788D02*
X005037Y004788D01*
X004968Y004947D02*
X009538Y004947D01*
X009688Y005105D02*
X004792Y005105D01*
X004859Y005264D02*
X009678Y005264D01*
X009534Y005422D02*
X005003Y005422D01*
X005068Y005581D02*
X009469Y005581D01*
X009469Y005739D02*
X005069Y005739D01*
X005020Y005898D02*
X009517Y005898D01*
X009637Y006056D02*
X004900Y006056D01*
X004751Y006215D02*
X009786Y006215D01*
X009568Y006373D02*
X004969Y006373D01*
X005048Y006532D02*
X009489Y006532D01*
X009469Y006690D02*
X005069Y006690D01*
X005040Y006849D02*
X009497Y006849D01*
X009588Y007007D02*
X004949Y007007D01*
X004920Y007324D02*
X009617Y007324D01*
X009509Y007483D02*
X005028Y007483D01*
X005069Y007641D02*
X009469Y007641D01*
X009477Y007800D02*
X005060Y007800D01*
X004995Y007958D02*
X009542Y007958D01*
X009666Y008275D02*
X004871Y008275D01*
X004821Y008117D02*
X009716Y008117D01*
X009529Y008434D02*
X007225Y008434D01*
X007383Y008592D02*
X009469Y008592D01*
X009469Y008751D02*
X007542Y008751D01*
X007700Y008909D02*
X009522Y008909D01*
X009649Y009068D02*
X007859Y009068D01*
X008017Y009226D02*
X009758Y009226D01*
X009557Y009385D02*
X008176Y009385D01*
X008334Y009543D02*
X009484Y009543D01*
X009469Y009702D02*
X008493Y009702D01*
X008651Y009860D02*
X009502Y009860D01*
X009600Y010019D02*
X008810Y010019D01*
X009834Y007166D02*
X004703Y007166D01*
X004956Y009000D02*
X004852Y009104D01*
X004668Y009180D01*
X003869Y009180D01*
X004668Y009180D01*
X004852Y009256D01*
X004956Y009360D01*
X007246Y009360D01*
X006886Y009000D01*
X004956Y009000D01*
X004888Y009068D02*
X006953Y009068D01*
X007112Y009226D02*
X004779Y009226D01*
X004937Y010019D02*
X007154Y010019D01*
X007313Y010177D02*
X004675Y010177D01*
X004931Y010336D02*
X007471Y010336D01*
X007535Y010494D02*
X007630Y010494D01*
X006715Y012079D02*
X004877Y012079D01*
X003848Y013189D02*
X001219Y013189D01*
X001219Y008275D02*
X003666Y008275D01*
X003716Y008117D02*
X001219Y008117D01*
X002829Y003996D02*
X003577Y003996D01*
X003492Y003837D02*
X001219Y003837D01*
X001219Y003679D02*
X003469Y003679D01*
X003494Y003520D02*
X001219Y003520D01*
X001219Y003362D02*
X003580Y003362D01*
X003813Y003203D02*
X001219Y003203D01*
X002437Y001777D02*
X009349Y001777D01*
X009461Y001935D02*
X002706Y001935D01*
X002828Y002094D02*
X009657Y002094D01*
X004289Y004313D02*
X004249Y004313D01*
X004249Y004471D02*
X004289Y004471D01*
X004289Y004630D02*
X004249Y004630D01*
X004249Y004788D02*
X004289Y004788D01*
X004289Y004947D02*
X004249Y004947D01*
X004249Y005105D02*
X004289Y005105D01*
X003806Y004154D02*
X003055Y004154D01*
X003179Y004313D02*
X003658Y004313D01*
X003536Y004471D02*
X003245Y004471D01*
X003270Y004630D02*
X003491Y004630D01*
X003500Y004788D02*
X003270Y004788D01*
X003221Y004947D02*
X003569Y004947D01*
X003745Y005105D02*
X003156Y005105D01*
X002997Y005264D02*
X003678Y005264D01*
D14*
X004269Y008680D02*
X007019Y008680D01*
X009269Y010930D01*
X009269Y017930D01*
X010519Y019180D01*
X010519Y022680D01*
X010019Y022930D02*
X010519Y023430D01*
X010519Y024180D02*
X009519Y023180D01*
X009519Y019680D01*
X008269Y018430D01*
X008269Y011680D01*
X007269Y010680D01*
X004269Y010680D01*
X004269Y011680D02*
X006769Y011680D01*
X007769Y012680D01*
X007769Y018680D01*
X009019Y019930D01*
X009019Y021180D01*
X008769Y021430D01*
X010019Y022930D02*
X010019Y019430D01*
X008769Y018180D01*
X008769Y011180D01*
X007269Y009680D01*
X004269Y009680D01*
X004269Y012680D02*
X006769Y012680D01*
X007269Y013180D01*
X007269Y022930D01*
X006019Y024180D01*
X006769Y024930D01*
D15*
X006769Y024930D03*
X008769Y021430D03*
X010519Y022680D03*
X010519Y023430D03*
X010519Y024180D03*
M02*
