%
M48
M72
T01C0.0236
T02C0.0394
T03C0.0400
T04C0.1102
%
T01
X8769Y21430
X10519Y22680
X10519Y23430
X10519Y24180
X6769Y24930
T02
X2269Y1011
X2269Y2389
T03
X4269Y3680
X4269Y4680
X4269Y5680
X4269Y6680
X4269Y7680
X4269Y8680
X4269Y9680
X4269Y10680
X4269Y11680
X4269Y12680
X4269Y13680
X4269Y14680
X4269Y15680
X4269Y16680
X4269Y17680
X10269Y17680
X10269Y16680
X10269Y15680
X10269Y14680
X10269Y13680
X10269Y12680
X10269Y11680
X10269Y10680
X10269Y9680
X10269Y8680
X10269Y7680
X10269Y6680
X10269Y5680
X10269Y4680
X10269Y3680
T04
X10019Y1430
X2519Y4680
X2519Y14430
M30
